<svg width="245" height="36" viewBox="0 0 245 36" fill="none" xmlns="http://www.w3.org/2000/svg">
<path d="M20.802 31.9437H20.2395C20.2395 31.9377 20.2367 31.9318 20.2355 31.9261L20.2201 31.8573C20.2103 31.812 20.1996 31.7671 20.1886 31.7226C20.1838 31.7016 20.1787 31.6806 20.1736 31.6597C20.159 31.6009 20.1436 31.5422 20.1278 31.4834L20.1231 31.4666C20.1057 31.4029 20.0876 31.3396 20.0686 31.2765L20.0497 31.2155C20.0367 31.172 20.0229 31.129 20.0103 31.086C20.0028 31.0624 19.9949 31.0392 19.9874 31.016C19.9736 30.9744 19.9594 30.9329 19.9448 30.8917C19.9373 30.87 19.9294 30.8479 19.9219 30.8266C19.9035 30.775 19.8846 30.7237 19.8651 30.6728C19.8608 30.6619 19.8572 30.6515 19.8529 30.6406C19.83 30.5807 19.8059 30.5212 19.7815 30.4617C19.7728 30.44 19.7637 30.4187 19.7546 30.3974C19.7381 30.3599 19.7215 30.3188 19.7045 30.2798L19.6726 30.2076C19.656 30.1702 19.6391 30.1328 19.6217 30.0953C19.6111 30.0721 19.6 30.0486 19.589 30.0254C19.5688 29.9823 19.5495 29.9397 19.527 29.8974C19.5187 29.8813 19.5112 29.8648 19.503 29.8483C19.475 29.7926 19.4462 29.7361 19.417 29.6822L19.3775 29.6122L19.3219 29.5108L19.2785 29.4359C19.2604 29.4045 19.2422 29.373 19.2237 29.3416C19.2091 29.3162 19.1941 29.2907 19.1791 29.2668C19.1586 29.2327 19.1396 29.1994 19.1172 29.1657L19.0604 29.0744C19.0335 29.0325 19.0067 28.9902 18.9791 28.9487C18.9617 28.9225 18.9444 28.8966 18.9266 28.8708C18.9089 28.845 18.8895 28.8154 18.8706 28.7881C18.8517 28.7608 18.8312 28.7335 18.8138 28.7065C18.7965 28.6796 18.7775 28.6553 18.759 28.6317C18.7404 28.6081 18.7195 28.5767 18.6994 28.5493L18.6438 28.4745C18.6043 28.4247 18.568 28.3749 18.5294 28.3248L18.4753 28.2563C18.4525 28.2275 18.4288 28.199 18.4055 28.1706L18.3535 28.1077C18.3294 28.0789 18.3049 28.0505 18.2805 28.0217L18.2292 27.9625L18.1527 27.8757L18.1073 27.8256C18.013 27.7219 17.9164 27.6197 17.8174 27.5202L17.774 27.4764L17.6832 27.3877L17.6387 27.345C17.6071 27.3147 17.5755 27.2848 17.5436 27.2552L17.5109 27.2253C17.3992 27.1224 17.2844 27.0221 17.1677 26.9259L17.1357 26.8993C17.0997 26.8694 17.0634 26.8398 17.0268 26.8106L16.9905 26.7814C16.9511 26.7515 16.9152 26.7219 16.8769 26.6923L16.8576 26.6777C16.7286 26.5789 16.5965 26.4828 16.4631 26.3903L16.4446 26.3772C16.4024 26.3484 16.3602 26.32 16.3176 26.2919L16.2896 26.2736C16.2462 26.2447 16.2024 26.2167 16.1586 26.1886L16.1511 26.1841C16.0059 26.0921 15.858 26.0039 15.7073 25.9195L15.7014 25.9158C15.6537 25.8892 15.6059 25.8634 15.5582 25.8376L15.5373 25.8263C15.2832 25.6904 15.0224 25.5656 14.7546 25.4521L14.7381 25.445C14.6675 25.415 14.5965 25.3862 14.5247 25.3578H15.9365C16.1665 25.3578 16.3531 25.1067 16.3531 24.7964C16.3531 24.4862 16.1665 24.2351 15.9365 24.2351H15.516C15.542 24.1722 15.5708 24.1011 15.602 24.021C15.9996 23.786 16.6994 23.2852 17.3937 22.3653L17.3992 22.3582C17.4518 22.2894 17.5035 22.2181 17.5542 22.1445L17.5645 22.1299C17.615 22.0577 17.6655 21.9832 17.7152 21.9054L17.7286 21.8848C17.7523 21.8474 17.7759 21.81 17.7996 21.7725C17.7996 21.7725 17.7996 21.7695 17.8024 21.7677C17.8268 21.7302 17.8509 21.6891 17.875 21.649L17.8903 21.6232C17.9109 21.5888 17.9318 21.5536 17.9519 21.5181C17.9558 21.5117 17.9598 21.5053 17.9633 21.4986C17.9866 21.4582 18.0099 21.417 18.0327 21.3755L18.0485 21.3466C18.0675 21.3122 18.086 21.2774 18.1045 21.2422C18.1101 21.2325 18.1156 21.2224 18.1207 21.2123C18.1428 21.17 18.1649 21.1273 18.187 21.0839L18.2024 21.0536C18.2197 21.0184 18.2375 20.9825 18.2548 20.9466L18.2738 20.9092C18.2951 20.865 18.316 20.8201 18.3369 20.7748L18.3499 20.746C18.3673 20.7086 18.3842 20.6711 18.4012 20.6337L18.4213 20.5888C18.441 20.5435 18.4608 20.4979 18.4797 20.4518C18.4832 20.4436 18.4868 20.435 18.4899 20.4268C18.5077 20.3845 18.5251 20.3414 18.5424 20.298L18.5621 20.2486C18.5783 20.2074 18.5945 20.1659 18.6103 20.1244L18.6221 20.0929C18.6406 20.0435 18.6588 19.993 18.6769 19.9432L18.6959 19.8901C18.7101 19.8504 18.7239 19.81 18.7377 19.7696C18.7428 19.7546 18.7479 19.7396 18.7527 19.7247C18.77 19.673 18.7874 19.6203 18.8043 19.5675C18.8099 19.5492 18.8158 19.5301 18.8213 19.5128L18.8608 19.3897C18.8659 19.3718 18.8714 19.3523 18.8765 19.3362C18.8927 19.2819 18.9089 19.2266 18.9243 19.1708C18.9294 19.1532 18.9341 19.1352 18.9389 19.1173C18.9507 19.0742 18.9625 19.0312 18.974 18.9874C18.9791 18.9676 18.9842 18.9477 18.9897 18.9279C19.0043 18.8703 19.0189 18.8123 19.0331 18.7535L19.045 18.7045C19.056 18.6577 19.0671 18.6105 19.0777 18.563L19.0919 18.4994C19.1053 18.4384 19.1187 18.3774 19.1314 18.3153C19.1341 18.3033 19.1365 18.2909 19.1389 18.2778C19.1499 18.2243 19.1606 18.1701 19.1708 18.1158C19.1752 18.0937 19.1791 18.0716 19.1834 18.0496C19.1937 17.9938 19.2036 17.9373 19.2134 17.8815C19.2154 17.8695 19.2178 17.8579 19.2197 17.8463C19.2308 17.7805 19.2416 17.7141 19.2521 17.6472C19.2556 17.6248 19.2592 17.6023 19.2623 17.5795C19.2706 17.5252 19.2785 17.4706 19.2864 17.4152L19.2935 17.3643C19.303 17.2955 19.312 17.2262 19.3207 17.1559C19.3235 17.1338 19.3258 17.1117 19.3286 17.0892C19.3354 17.0334 19.3418 16.9772 19.3475 16.9208C19.3499 16.9006 19.3523 16.8808 19.3542 16.8606C19.3619 16.7882 19.369 16.7153 19.3755 16.6417C19.3755 16.6211 19.3791 16.6005 19.3807 16.5795C19.3858 16.5204 19.3909 16.4609 19.3953 16.401C19.3953 16.3789 19.3988 16.3569 19.4004 16.3348C19.4059 16.2584 19.4111 16.1816 19.4158 16.1042C19.4158 16.0867 19.4158 16.0668 19.4185 16.0511C19.4221 15.9867 19.4256 15.922 19.4284 15.8569C19.4284 15.8333 19.4284 15.8097 19.4316 15.7861C19.4347 15.7057 19.4379 15.6248 19.4402 15.5429C19.4402 15.5316 19.4402 15.52 19.4402 15.5084C19.4423 15.4356 19.4439 15.362 19.445 15.2876C19.445 15.2633 19.445 15.239 19.445 15.2147C19.445 15.1348 19.445 15.0545 19.445 14.9737V14.9549C19.445 14.8689 19.445 14.7817 19.445 14.693V14.6181C19.445 14.5433 19.4418 14.4647 19.4398 14.3868V14.3445C19.4371 14.2547 19.4335 14.1638 19.43 14.0725C19.43 14.0489 19.4276 14.0249 19.4268 14.0014C19.4234 13.9245 19.4195 13.8472 19.415 13.7693C19.415 13.7502 19.415 13.7319 19.4118 13.7113C19.4063 13.6178 19.4003 13.5235 19.3937 13.4284L19.389 13.3622C19.383 13.2828 19.3771 13.2031 19.3704 13.1226C19.3704 13.0994 19.3669 13.0762 19.3649 13.053C19.3566 12.9557 19.3475 12.8573 19.3381 12.7585C19.3381 12.7398 19.3341 12.7211 19.3325 12.702C19.3243 12.6178 19.3152 12.5328 19.3061 12.4471C19.3034 12.4213 19.3006 12.3959 19.2974 12.37C19.2864 12.2682 19.2746 12.1661 19.2619 12.0624C19.2619 12.0497 19.2584 12.037 19.2568 12.025C19.2455 11.9322 19.2335 11.8389 19.2209 11.7451C19.217 11.7174 19.2134 11.6897 19.2095 11.662C19.1947 11.5557 19.1796 11.4485 19.1641 11.3405C17.5862 0.684277 6.40434 2.41366 6.40434 2.41366L6.76253 4.70328L0 11.4808L0.295463 14.0979L2.8572 15.5949C2.9714 15.3195 3.11802 15.0573 3.29428 14.8131C4.94714 13.0044 8.15385 11.5845 9.0718 11.29C9.25562 11.2312 9.36016 11.2016 9.36016 11.2016C4.96923 16.593 5.46864 22.7695 5.6643 24.2418C5.46075 24.2792 5.30336 24.5124 5.30336 24.7968C5.30336 25.1067 5.48994 25.3582 5.71992 25.3582H7.13176C4.78369 26.2906 2.91984 28.0665 1.94714 30.2982C1.94599 30.3012 1.94468 30.3042 1.9432 30.3072C1.8714 30.4728 1.8046 30.6409 1.7428 30.8113C1.74291 30.813 1.74291 30.8148 1.7428 30.8165C1.72624 30.8629 1.71006 30.9093 1.69428 30.9561C1.68837 30.9729 1.68245 30.9898 1.67692 31.007C1.66272 31.0489 1.64957 31.0912 1.63748 31.1339C1.63038 31.1556 1.62367 31.1777 1.61696 31.1994C1.60434 31.2394 1.59211 31.2798 1.58028 31.3202L1.55898 31.3951C1.54793 31.4325 1.53689 31.4726 1.52663 31.5115C1.51914 31.5392 1.51203 31.5665 1.50493 31.5942C1.49546 31.6316 1.4856 31.669 1.47653 31.7065C1.46746 31.7439 1.45878 31.7813 1.4501 31.821C1.44142 31.8606 1.43038 31.9071 1.42091 31.9505H0.857988C0.74974 31.9482 0.642108 31.9665 0.541405 32.0042C0.440702 32.0419 0.348959 32.0984 0.27156 32.1702C0.19416 32.242 0.132659 32.3278 0.0906739 32.4225C0.048689 32.5172 0.0270625 32.6189 0.0270625 32.7216C0.0270625 32.8243 0.048689 32.926 0.0906739 33.0207C0.132659 33.1154 0.19416 33.2011 0.27156 33.273C0.348959 33.3448 0.440702 33.4012 0.541405 33.439C0.642108 33.4767 0.74974 33.495 0.857988 33.4927H20.8091C20.9173 33.495 21.025 33.4767 21.1257 33.439C21.2264 33.4012 21.3181 33.3448 21.3955 33.273C21.4729 33.2011 21.5344 33.1154 21.5764 33.0207C21.6184 32.926 21.64 32.8243 21.64 32.7216C21.64 32.6189 21.6184 32.5172 21.5764 32.4225C21.5344 32.3278 21.4729 32.242 21.3955 32.1702C21.3181 32.0984 21.2264 32.0419 21.1257 32.0042C21.025 31.9665 20.9173 31.9482 20.8091 31.9505L20.802 31.9437Z" fill="#595653"/>
<path d="M44.1731 31.9437H43.6105C43.6105 31.9377 43.6078 31.9318 43.6066 31.9261L43.5912 31.8573C43.5814 31.812 43.5707 31.7671 43.5597 31.7226C43.5549 31.7016 43.5498 31.6806 43.5447 31.6597C43.5301 31.6009 43.5147 31.5422 43.4989 31.4834L43.4942 31.4666C43.4768 31.4029 43.4587 31.3396 43.4397 31.2765L43.4208 31.2155C43.4078 31.172 43.394 31.129 43.3814 31.086C43.3739 31.0624 43.366 31.0392 43.3585 31.016C43.3447 30.9744 43.3305 30.9329 43.3159 30.8917C43.3084 30.87 43.3005 30.8479 43.293 30.8266C43.2746 30.775 43.2556 30.7237 43.2362 30.6728C43.2318 30.6619 43.2283 30.6515 43.224 30.6406C43.2011 30.5807 43.177 30.5212 43.1526 30.4617C43.1439 30.44 43.1348 30.4187 43.1257 30.3974C43.1092 30.3599 43.0926 30.3188 43.0756 30.2798L43.0437 30.2076C43.0271 30.1702 43.0102 30.1328 42.9928 30.0953C42.9821 30.0721 42.9711 30.0486 42.9601 30.0254C42.9399 29.9823 42.9206 29.9397 42.8981 29.8974C42.8898 29.8813 42.8823 29.8648 42.8741 29.8483C42.846 29.7926 42.8173 29.7361 42.7881 29.6822L42.7486 29.6122L42.693 29.5108L42.6496 29.4359C42.6315 29.4045 42.6133 29.373 42.5948 29.3416C42.5802 29.3162 42.5652 29.2907 42.5502 29.2668C42.5297 29.2327 42.5107 29.1994 42.4883 29.1657L42.4315 29.0744C42.4046 29.0325 42.3778 28.9902 42.3502 28.9487C42.3328 28.9225 42.3155 28.8966 42.2977 28.8708C42.28 28.845 42.2606 28.8154 42.2417 28.7881C42.2228 28.7608 42.2023 28.7335 42.1849 28.7065C42.1675 28.6796 42.1486 28.6553 42.1301 28.6317C42.1115 28.6081 42.0906 28.5767 42.0705 28.5493L42.0149 28.4745C41.9754 28.4247 41.9391 28.3749 41.9005 28.3248L41.8464 28.2563C41.8236 28.2275 41.7999 28.199 41.7766 28.1706L41.7245 28.1077C41.7005 28.0789 41.676 28.0505 41.6516 28.0217L41.6003 27.9625L41.5238 27.8757L41.4784 27.8256C41.3841 27.7219 41.2875 27.6197 41.1885 27.5202L41.1451 27.4764L41.0543 27.3877L41.0098 27.345C40.9782 27.3147 40.9466 27.2848 40.9147 27.2552L40.8819 27.2253C40.7703 27.1224 40.6555 27.0221 40.5388 26.9259L40.5068 26.8993C40.4708 26.8694 40.4345 26.8398 40.3979 26.8106L40.3616 26.7814C40.3222 26.7515 40.2863 26.7219 40.248 26.6923L40.2287 26.6777C40.0997 26.5789 39.9675 26.4828 39.8342 26.3903L39.8157 26.3772C39.7735 26.3484 39.7313 26.32 39.6887 26.2919L39.6606 26.2736C39.6173 26.2447 39.5735 26.2167 39.5297 26.1886L39.5222 26.1841C39.377 26.0921 39.2291 26.0039 39.0784 25.9195L39.0725 25.9158C39.0247 25.8892 38.977 25.8634 38.9293 25.8376L38.9084 25.8263C38.6543 25.6904 38.3935 25.5656 38.1257 25.4521L38.1092 25.445C38.0386 25.415 37.9675 25.3862 37.8958 25.3578H39.3076C39.5376 25.3578 39.7242 25.1067 39.7242 24.7964C39.7242 24.4862 39.5376 24.2351 39.3076 24.2351H38.8871C38.9131 24.1722 38.9419 24.1011 38.9731 24.021C39.3707 23.786 40.0705 23.2852 40.7648 22.3653L40.7703 22.3582C40.8229 22.2894 40.8746 22.2181 40.9253 22.1445L40.9356 22.1299C40.9861 22.0577 41.0366 21.9832 41.0863 21.9054L41.0997 21.8848C41.1234 21.8474 41.147 21.81 41.1707 21.7725C41.1707 21.7725 41.1707 21.7695 41.1735 21.7677C41.1979 21.7302 41.222 21.6891 41.246 21.649L41.2614 21.6232C41.2819 21.5888 41.3029 21.5536 41.323 21.5181C41.3269 21.5117 41.3309 21.5053 41.3344 21.4986C41.3577 21.4582 41.381 21.417 41.4038 21.3755L41.4196 21.3466C41.4386 21.3122 41.4571 21.2774 41.4756 21.2422C41.4812 21.2325 41.4867 21.2224 41.4918 21.2123C41.5139 21.17 41.536 21.1273 41.5581 21.0839L41.5735 21.0536C41.5908 21.0184 41.6086 20.9825 41.6259 20.9466L41.6449 20.9092C41.6662 20.865 41.6871 20.8201 41.708 20.7748L41.721 20.746C41.7384 20.7086 41.7553 20.6711 41.7723 20.6337L41.7924 20.5888C41.8121 20.5435 41.8318 20.4979 41.8508 20.4518C41.8543 20.4436 41.8579 20.435 41.861 20.4268C41.8788 20.3845 41.8961 20.3414 41.9135 20.298L41.9332 20.2486C41.9494 20.2074 41.9656 20.1659 41.9814 20.1244L41.9932 20.0929C42.0117 20.0435 42.0299 19.993 42.048 19.9432L42.067 19.8901C42.0812 19.8504 42.095 19.81 42.1088 19.7696C42.1139 19.7546 42.119 19.7396 42.1238 19.7247C42.1411 19.673 42.1585 19.6203 42.1754 19.5675C42.181 19.5492 42.1869 19.5301 42.1924 19.5128L42.2318 19.3897C42.237 19.3718 42.2425 19.3523 42.2476 19.3362C42.2638 19.2819 42.28 19.2266 42.2954 19.1708C42.3005 19.1532 42.3052 19.1352 42.31 19.1173C42.3218 19.0742 42.3336 19.0312 42.3451 18.9874C42.3502 18.9676 42.3553 18.9477 42.3608 18.9279C42.3754 18.8703 42.39 18.8123 42.4042 18.7535L42.4161 18.7045C42.4271 18.6577 42.4382 18.6105 42.4488 18.563L42.463 18.4994C42.4764 18.4384 42.4898 18.3774 42.5025 18.3153C42.5052 18.3033 42.5076 18.2909 42.51 18.2778C42.521 18.2243 42.5316 18.1701 42.5419 18.1158C42.5462 18.0937 42.5502 18.0716 42.5545 18.0496C42.5648 17.9938 42.5747 17.9373 42.5845 17.8815C42.5865 17.8695 42.5888 17.8579 42.5908 17.8463C42.6019 17.7805 42.6127 17.7141 42.6232 17.6472C42.6267 17.6248 42.6303 17.6023 42.6334 17.5795C42.6417 17.5252 42.6496 17.4706 42.6575 17.4152L42.6646 17.3643C42.6741 17.2955 42.6831 17.2262 42.6918 17.1559C42.6946 17.1338 42.6969 17.1117 42.6997 17.0892C42.7065 17.0334 42.7128 16.9772 42.7186 16.9208C42.721 16.9006 42.7234 16.8808 42.7253 16.8606C42.733 16.7882 42.7401 16.7153 42.7466 16.6417C42.7466 16.6211 42.7502 16.6005 42.7518 16.5795C42.7569 16.5204 42.762 16.4609 42.7664 16.401C42.7664 16.3789 42.7699 16.3569 42.7715 16.3348C42.777 16.2584 42.7821 16.1816 42.7869 16.1042C42.7869 16.0867 42.7869 16.0668 42.7896 16.0511C42.7932 15.9867 42.7967 15.922 42.7995 15.8569C42.7995 15.8333 42.7995 15.8097 42.8027 15.7861C42.8058 15.7057 42.809 15.6248 42.8113 15.5429C42.8113 15.5316 42.8113 15.52 42.8113 15.5084C42.8134 15.4356 42.815 15.362 42.8161 15.2876C42.8161 15.2633 42.8161 15.239 42.8161 15.2147C42.8161 15.1348 42.8161 15.0545 42.8161 14.9737V14.9549C42.8161 14.8689 42.8161 14.7817 42.8161 14.693V14.6181C42.8161 14.5433 42.8129 14.4647 42.8109 14.3868V14.3445C42.8082 14.2547 42.8046 14.1638 42.8011 14.0725C42.8011 14.0489 42.7987 14.0249 42.7979 14.0014C42.7945 13.9245 42.7906 13.8472 42.7861 13.7693C42.7861 13.7502 42.7861 13.7319 42.7829 13.7113C42.7774 13.6178 42.7714 13.5235 42.7648 13.4284L42.7601 13.3622C42.7541 13.2828 42.7482 13.2031 42.7415 13.1226C42.7415 13.0994 42.738 13.0762 42.736 13.053C42.7277 12.9557 42.7186 12.8573 42.7092 12.7585C42.7092 12.7398 42.7052 12.7211 42.7036 12.702C42.6954 12.6178 42.6863 12.5328 42.6772 12.4471C42.6745 12.4213 42.6717 12.3959 42.6685 12.37C42.6575 12.2682 42.6457 12.1661 42.633 12.0624C42.633 12.0497 42.6295 12.037 42.6279 12.025C42.6166 11.9322 42.6046 11.8389 42.592 11.7451C42.5881 11.7174 42.5845 11.6897 42.5806 11.662C42.5658 11.5557 42.5507 11.4485 42.5352 11.3405C40.9573 0.684277 29.7754 2.41366 29.7754 2.41366L30.1336 4.70328L23.3711 11.4808L23.6666 14.0979L26.2283 15.5949C26.3425 15.3195 26.4891 15.0573 26.6654 14.8131C28.3182 13.0044 31.5249 11.5845 32.4429 11.29C32.6267 11.2312 32.7313 11.2016 32.7313 11.2016C28.3403 16.593 28.8397 22.7695 29.0354 24.2418C28.8318 24.2792 28.6745 24.5124 28.6745 24.7968C28.6745 25.1067 28.861 25.3582 29.091 25.3582H30.5029C28.1548 26.2906 26.2909 28.0665 25.3182 30.2982C25.3171 30.3012 25.3158 30.3042 25.3143 30.3072C25.2425 30.4728 25.1757 30.6409 25.1139 30.8113C25.114 30.813 25.114 30.8148 25.1139 30.8165C25.0973 30.8629 25.0812 30.9093 25.0654 30.9561C25.0595 30.9729 25.0535 30.9898 25.048 31.007C25.0338 31.0489 25.0207 31.0912 25.0086 31.1339C25.0015 31.1556 24.9948 31.1777 24.9881 31.1994C24.9754 31.2394 24.9632 31.2798 24.9514 31.3202L24.9301 31.3951C24.919 31.4325 24.908 31.4726 24.8977 31.5115C24.8902 31.5392 24.8831 31.5665 24.876 31.5942C24.8666 31.6316 24.8567 31.669 24.8476 31.7065C24.8386 31.7439 24.8299 31.7813 24.8212 31.821C24.8125 31.8606 24.8015 31.9071 24.792 31.9505H24.2291C24.1208 31.9482 24.0132 31.9665 23.9125 32.0042C23.8118 32.0419 23.7201 32.0984 23.6427 32.1702C23.5653 32.242 23.5038 32.3278 23.4618 32.4225C23.4198 32.5172 23.3982 32.6189 23.3982 32.7216C23.3982 32.8243 23.4198 32.926 23.4618 33.0207C23.5038 33.1154 23.5653 33.2011 23.6427 33.273C23.7201 33.3448 23.8118 33.4012 23.9125 33.439C24.0132 33.4767 24.1208 33.495 24.2291 33.4927H44.1802C44.2884 33.495 44.3961 33.4767 44.4968 33.439C44.5975 33.4012 44.6892 33.3448 44.7666 33.273C44.844 33.2011 44.9055 33.1154 44.9475 33.0207C44.9895 32.926 45.0111 32.8243 45.0111 32.7216C45.0111 32.6189 44.9895 32.5172 44.9475 32.4225C44.9055 32.3278 44.844 32.242 44.7666 32.1702C44.6892 32.0984 44.5975 32.0419 44.4968 32.0042C44.3961 31.9665 44.2884 31.9482 44.1802 31.9505L44.1731 31.9437Z" fill="#595653"/>
<path d="M67.5447 31.9437H66.9821C66.9821 31.9377 66.9794 31.9318 66.9782 31.9261L66.9628 31.8573C66.9529 31.812 66.9423 31.7671 66.9312 31.7226C66.9265 31.7016 66.9214 31.6806 66.9163 31.6597C66.9017 31.6009 66.8863 31.5422 66.8705 31.4834L66.8658 31.4666C66.8484 31.4029 66.8303 31.3396 66.8113 31.2765L66.7924 31.2155C66.7794 31.172 66.7656 31.129 66.7529 31.086C66.7454 31.0624 66.7376 31.0392 66.7301 31.016C66.7163 30.9744 66.702 30.9329 66.6875 30.8917C66.68 30.87 66.6721 30.8479 66.6646 30.8266C66.6462 30.775 66.6272 30.7237 66.6078 30.6728C66.6034 30.6619 66.5999 30.6515 66.5955 30.6406C66.5727 30.5807 66.5486 30.5212 66.5241 30.4617C66.5155 30.44 66.5064 30.4187 66.4973 30.3974C66.4807 30.3599 66.4642 30.3188 66.4472 30.2798L66.4153 30.2076C66.3987 30.1702 66.3817 30.1328 66.3644 30.0953C66.3537 30.0721 66.3427 30.0486 66.3316 30.0254C66.3115 29.9823 66.2922 29.9397 66.2697 29.8974C66.2614 29.8813 66.2539 29.8648 66.2456 29.8483C66.2176 29.7926 66.1888 29.7361 66.1596 29.6822L66.1202 29.6122L66.0646 29.5108L66.0212 29.4359C66.003 29.4045 65.9849 29.373 65.9664 29.3416C65.9518 29.3162 65.9368 29.2907 65.9218 29.2668C65.9013 29.2327 65.8823 29.1994 65.8598 29.1657L65.803 29.0744C65.7762 29.0325 65.7494 28.9902 65.7218 28.9487C65.7044 28.9225 65.6871 28.8966 65.6693 28.8708C65.6516 28.845 65.6322 28.8154 65.6133 28.7881C65.5944 28.7608 65.5738 28.7335 65.5565 28.7065C65.5391 28.6796 65.5202 28.6553 65.5017 28.6317C65.4831 28.6081 65.4622 28.5767 65.4421 28.5493L65.3865 28.4745C65.347 28.4247 65.3107 28.3749 65.2721 28.3248L65.218 28.2563C65.1951 28.2275 65.1715 28.199 65.1482 28.1706L65.0961 28.1077C65.0721 28.0789 65.0476 28.0505 65.0232 28.0217L64.9719 27.9625L64.8953 27.8757L64.85 27.8256C64.7557 27.7219 64.6591 27.6197 64.56 27.5202L64.5166 27.4764L64.4259 27.3877L64.3813 27.345C64.3498 27.3147 64.3182 27.2848 64.2863 27.2552L64.2535 27.2253C64.1419 27.1224 64.0271 27.0221 63.9103 26.9259L63.8784 26.8993C63.8424 26.8694 63.8061 26.8398 63.7695 26.8106L63.7332 26.7814C63.6938 26.7515 63.6579 26.7219 63.6196 26.6923L63.6003 26.6777C63.4713 26.5789 63.3391 26.4828 63.2058 26.3903L63.1873 26.3772C63.145 26.3484 63.1028 26.32 63.0602 26.2919L63.0322 26.2736C62.9888 26.2447 62.945 26.2167 62.9013 26.1886L62.8938 26.1841C62.7486 26.0921 62.6007 26.0039 62.45 25.9195L62.4441 25.9158C62.3963 25.8892 62.3486 25.8634 62.3009 25.8376L62.28 25.8263C62.0259 25.6904 61.765 25.5656 61.4973 25.4521L61.4807 25.445C61.4101 25.415 61.3391 25.3862 61.2673 25.3578H62.6792C62.9091 25.3578 63.0957 25.1067 63.0957 24.7964C63.0957 24.4862 62.9091 24.2351 62.6792 24.2351H62.2587C62.2847 24.1722 62.3135 24.1011 62.3447 24.021C62.7423 23.786 63.4421 23.2852 64.1364 22.3653L64.1419 22.3582C64.1945 22.2894 64.2462 22.2181 64.2969 22.1445L64.3072 22.1299C64.3577 22.0577 64.4082 21.9832 64.4579 21.9054L64.4713 21.8848C64.4949 21.8474 64.5186 21.81 64.5423 21.7725C64.5423 21.7725 64.5423 21.7695 64.545 21.7677C64.5695 21.7302 64.5936 21.6891 64.6176 21.649L64.633 21.6232C64.6535 21.5888 64.6744 21.5536 64.6946 21.5181C64.6985 21.5117 64.7024 21.5053 64.706 21.4986C64.7293 21.4582 64.7525 21.417 64.7754 21.3755L64.7912 21.3466C64.8101 21.3122 64.8287 21.2774 64.8472 21.2422C64.8527 21.2325 64.8583 21.2224 64.8634 21.2123C64.8855 21.17 64.9076 21.1273 64.9297 21.0839L64.945 21.0536C64.9624 21.0184 64.9802 20.9825 64.9975 20.9466L65.0164 20.9092C65.0377 20.865 65.0587 20.8201 65.0796 20.7748L65.0926 20.746C65.1099 20.7086 65.1269 20.6711 65.1439 20.6337L65.164 20.5888C65.1837 20.5435 65.2034 20.4979 65.2224 20.4518C65.2259 20.4436 65.2295 20.435 65.2326 20.4268C65.2504 20.3845 65.2677 20.3414 65.2851 20.298L65.3048 20.2486C65.321 20.2074 65.3372 20.1659 65.3529 20.1244L65.3648 20.0929C65.3833 20.0435 65.4015 19.993 65.4196 19.9432L65.4385 19.8901C65.4527 19.8504 65.4665 19.81 65.4804 19.7696C65.4855 19.7546 65.4906 19.7396 65.4953 19.7247C65.5127 19.673 65.5301 19.6203 65.547 19.5675C65.5525 19.5492 65.5585 19.5301 65.564 19.5128L65.6034 19.3897C65.6086 19.3718 65.6141 19.3523 65.6192 19.3362C65.6354 19.2819 65.6516 19.2266 65.6669 19.1708C65.6721 19.1532 65.6768 19.1352 65.6815 19.1173C65.6934 19.0742 65.7052 19.0312 65.7166 18.9874C65.7218 18.9676 65.7269 18.9477 65.7324 18.9279C65.747 18.8703 65.7616 18.8123 65.7758 18.7535L65.7877 18.7045C65.7987 18.6577 65.8097 18.6105 65.8204 18.563L65.8346 18.4994C65.848 18.4384 65.8614 18.3774 65.874 18.3153C65.8768 18.3033 65.8792 18.2909 65.8815 18.2778C65.8926 18.2243 65.9032 18.1701 65.9135 18.1158C65.9178 18.0937 65.9218 18.0716 65.9261 18.0496C65.9364 17.9938 65.9462 17.9373 65.9561 17.8815C65.9581 17.8695 65.9604 17.8579 65.9624 17.8463C65.9734 17.7805 65.9842 17.7141 65.9948 17.6472C65.9983 17.6248 66.0019 17.6023 66.005 17.5795C66.0133 17.5252 66.0212 17.4706 66.0291 17.4152L66.0362 17.3643C66.0456 17.2955 66.0547 17.2262 66.0634 17.1559C66.0662 17.1338 66.0685 17.1117 66.0713 17.0892C66.0781 17.0334 66.0844 16.9772 66.0902 16.9208C66.0926 16.9006 66.0949 16.8808 66.0969 16.8606C66.1045 16.7882 66.1116 16.7153 66.1182 16.6417C66.1182 16.6211 66.1218 16.6005 66.1234 16.5795C66.1285 16.5204 66.1336 16.4609 66.1379 16.401C66.1379 16.3789 66.1415 16.3569 66.1431 16.3348C66.1486 16.2584 66.1537 16.1816 66.1585 16.1042C66.1585 16.0867 66.1585 16.0668 66.1612 16.0511C66.1648 15.9867 66.1683 15.922 66.1711 15.8569C66.1711 15.8333 66.1711 15.8097 66.1742 15.7861C66.1774 15.7057 66.1806 15.6248 66.1829 15.5429C66.1829 15.5316 66.1829 15.52 66.1829 15.5084C66.185 15.4356 66.1866 15.362 66.1877 15.2876C66.1877 15.2633 66.1877 15.239 66.1877 15.2147C66.1877 15.1348 66.1877 15.0545 66.1877 14.9737V14.9549C66.1877 14.8689 66.1877 14.7817 66.1877 14.693V14.6181C66.1877 14.5433 66.1845 14.4647 66.1825 14.3868V14.3445C66.1798 14.2547 66.1762 14.1638 66.1727 14.0725C66.1727 14.0489 66.1703 14.0249 66.1695 14.0014C66.1661 13.9245 66.1621 13.8472 66.1577 13.7693C66.1577 13.7502 66.1577 13.7319 66.1545 13.7113C66.149 13.6178 66.1429 13.5235 66.1364 13.4284L66.1316 13.3622C66.1257 13.2828 66.1198 13.2031 66.1131 13.1226C66.1131 13.0994 66.1095 13.0762 66.1076 13.053C66.0993 12.9557 66.0902 12.8573 66.0807 12.7585C66.0807 12.7398 66.0768 12.7211 66.0752 12.702C66.0669 12.6178 66.0579 12.5328 66.0488 12.4471C66.046 12.4213 66.0433 12.3959 66.0401 12.37C66.0291 12.2682 66.0172 12.1661 66.0046 12.0624C66.0046 12.0497 66.0011 12.037 65.9995 12.025C65.9882 11.9322 65.9762 11.8389 65.9636 11.7451C65.9596 11.7174 65.9561 11.6897 65.9521 11.662C65.9374 11.5557 65.9223 11.4485 65.9068 11.3405C64.3289 0.684277 53.147 2.41366 53.147 2.41366L53.5052 4.70328L46.7427 11.4808L47.0381 14.0979L49.5999 15.5949C49.7141 15.3195 49.8607 15.0573 50.037 14.8131C51.6898 13.0044 54.8965 11.5845 55.8145 11.29C55.9983 11.2312 56.1028 11.2016 56.1028 11.2016C51.7119 16.593 52.2113 22.7695 52.407 24.2418C52.2034 24.2792 52.046 24.5124 52.046 24.7968C52.046 25.1067 52.2326 25.3582 52.4626 25.3582H53.8744C51.5264 26.2906 49.6625 28.0665 48.6898 30.2982C48.6887 30.3012 48.6874 30.3042 48.6859 30.3072C48.6141 30.4728 48.5473 30.6409 48.4855 30.8113C48.4856 30.813 48.4856 30.8148 48.4855 30.8165C48.4689 30.8629 48.4527 30.9093 48.437 30.9561C48.431 30.9729 48.4251 30.9898 48.4196 31.007C48.4054 31.0489 48.3922 31.0912 48.3802 31.1339C48.3731 31.1556 48.3663 31.1777 48.3596 31.1994C48.347 31.2394 48.3348 31.2798 48.323 31.3202L48.3017 31.3951C48.2906 31.4325 48.2796 31.4726 48.2693 31.5115C48.2618 31.5392 48.2547 31.5665 48.2476 31.5942C48.2381 31.6316 48.2283 31.669 48.2192 31.7065C48.2101 31.7439 48.2015 31.7813 48.1928 31.821C48.1841 31.8606 48.1731 31.9071 48.1636 31.9505H47.6007C47.4924 31.9482 47.3848 31.9665 47.2841 32.0042C47.1834 32.0419 47.0916 32.0984 47.0142 32.1702C46.9368 32.242 46.8753 32.3278 46.8333 32.4225C46.7914 32.5172 46.7697 32.6189 46.7697 32.7216C46.7697 32.8243 46.7914 32.926 46.8333 33.0207C46.8753 33.1154 46.9368 33.2011 47.0142 33.273C47.0916 33.3448 47.1834 33.4012 47.2841 33.439C47.3848 33.4767 47.4924 33.495 47.6007 33.4927H67.5518C67.66 33.495 67.7676 33.4767 67.8683 33.439C67.969 33.4012 68.0608 33.3448 68.1382 33.273C68.2156 33.2011 68.2771 33.1154 68.3191 33.0207C68.3611 32.926 68.3827 32.8243 68.3827 32.7216C68.3827 32.6189 68.3611 32.5172 68.3191 32.4225C68.2771 32.3278 68.2156 32.242 68.1382 32.1702C68.0608 32.0984 67.969 32.0419 67.8683 32.0042C67.7676 31.9665 67.66 31.9482 67.5518 31.9505L67.5447 31.9437Z" fill="#595653"/>
<path d="M90.9157 31.9437H90.3532C90.3532 31.9377 90.3505 31.9318 90.3493 31.9261L90.3339 31.8573C90.324 31.812 90.3134 31.7671 90.3023 31.7226C90.2976 31.7016 90.2925 31.6806 90.2873 31.6597C90.2727 31.6009 90.2574 31.5422 90.2416 31.4834L90.2369 31.4666C90.2195 31.4029 90.2013 31.3396 90.1824 31.2765L90.1635 31.2155C90.1505 31.172 90.1367 31.129 90.124 31.086C90.1165 31.0624 90.1086 31.0392 90.1012 31.016C90.0873 30.9744 90.0731 30.9329 90.0585 30.8917C90.0511 30.87 90.0432 30.8479 90.0357 30.8266C90.0173 30.775 89.9983 30.7237 89.9789 30.6728C89.9745 30.6619 89.971 30.6515 89.9666 30.6406C89.9438 30.5807 89.9197 30.5212 89.8952 30.4617C89.8866 30.44 89.8775 30.4187 89.8684 30.3974C89.8518 30.3599 89.8353 30.3188 89.8183 30.2798L89.7864 30.2076C89.7698 30.1702 89.7528 30.1328 89.7355 30.0953C89.7248 30.0721 89.7138 30.0486 89.7027 30.0254C89.6826 29.9823 89.6633 29.9397 89.6408 29.8974C89.6325 29.8813 89.625 29.8648 89.6167 29.8483C89.5887 29.7926 89.5599 29.7361 89.5307 29.6822L89.4913 29.6122L89.4357 29.5108L89.3923 29.4359C89.3741 29.4045 89.356 29.373 89.3374 29.3416C89.3228 29.3162 89.3079 29.2907 89.2929 29.2668C89.2724 29.2327 89.2534 29.1994 89.2309 29.1657L89.1741 29.0744C89.1473 29.0325 89.1205 28.9902 89.0929 28.9487C89.0755 28.9225 89.0582 28.8966 89.0404 28.8708C89.0227 28.845 89.0033 28.8154 88.9844 28.7881C88.9654 28.7608 88.9449 28.7335 88.9276 28.7065C88.9102 28.6796 88.8913 28.6553 88.8727 28.6317C88.8542 28.6081 88.8333 28.5767 88.8132 28.5493L88.7576 28.4745C88.7181 28.4247 88.6818 28.3749 88.6432 28.3248L88.5891 28.2563C88.5662 28.2275 88.5426 28.199 88.5193 28.1706L88.4672 28.1077C88.4432 28.0789 88.4187 28.0505 88.3942 28.0217L88.343 27.9625L88.2664 27.8757L88.2211 27.8256C88.1268 27.7219 88.0301 27.6197 87.9311 27.5202L87.8877 27.4764L87.797 27.3877L87.7524 27.345C87.7209 27.3147 87.6893 27.2848 87.6574 27.2552L87.6246 27.2253C87.513 27.1224 87.3982 27.0221 87.2814 26.9259L87.2495 26.8993C87.2134 26.8694 87.1772 26.8398 87.1406 26.8106L87.1043 26.7814C87.0649 26.7515 87.029 26.7219 86.9907 26.6923L86.9714 26.6777C86.8424 26.5789 86.7102 26.4828 86.5769 26.3903L86.5583 26.3772C86.5161 26.3484 86.4739 26.32 86.4313 26.2919L86.4033 26.2736C86.3599 26.2447 86.3161 26.2167 86.2724 26.1886L86.2649 26.1841C86.1197 26.0921 85.9718 26.0039 85.8211 25.9195L85.8152 25.9158C85.7674 25.8892 85.7197 25.8634 85.672 25.8376L85.6511 25.8263C85.397 25.6904 85.1361 25.5656 84.8684 25.4521L84.8518 25.445C84.7812 25.415 84.7102 25.3862 84.6384 25.3578H86.0503C86.2802 25.3578 86.4668 25.1067 86.4668 24.7964C86.4668 24.4862 86.2802 24.2351 86.0503 24.2351H85.6297C85.6558 24.1722 85.6846 24.1011 85.7157 24.021C86.1134 23.786 86.8132 23.2852 87.5075 22.3653L87.513 22.3582C87.5656 22.2894 87.6173 22.2181 87.668 22.1445L87.6783 22.1299C87.7288 22.0577 87.7793 21.9832 87.829 21.9054L87.8424 21.8848C87.866 21.8474 87.8897 21.81 87.9134 21.7725C87.9134 21.7725 87.9134 21.7695 87.9161 21.7677C87.9406 21.7302 87.9647 21.6891 87.9887 21.649L88.0041 21.6232C88.0246 21.5888 88.0455 21.5536 88.0656 21.5181C88.0696 21.5117 88.0735 21.5053 88.0771 21.4986C88.1004 21.4582 88.1236 21.417 88.1465 21.3755L88.1623 21.3466C88.1812 21.3122 88.1998 21.2774 88.2183 21.2422C88.2238 21.2325 88.2294 21.2224 88.2345 21.2123C88.2566 21.17 88.2787 21.1273 88.3008 21.0839L88.3161 21.0536C88.3335 21.0184 88.3512 20.9825 88.3686 20.9466L88.3875 20.9092C88.4088 20.865 88.4297 20.8201 88.4507 20.7748L88.4637 20.746C88.481 20.7086 88.498 20.6711 88.515 20.6337L88.5351 20.5888C88.5548 20.5435 88.5745 20.4979 88.5935 20.4518C88.597 20.4436 88.6006 20.435 88.6037 20.4268C88.6215 20.3845 88.6388 20.3414 88.6562 20.298L88.6759 20.2486C88.6921 20.2074 88.7083 20.1659 88.724 20.1244L88.7359 20.0929C88.7544 20.0435 88.7725 19.993 88.7907 19.9432L88.8096 19.8901C88.8238 19.8504 88.8376 19.81 88.8514 19.7696C88.8566 19.7546 88.8617 19.7396 88.8664 19.7247C88.8838 19.673 88.9012 19.6203 88.9181 19.5675C88.9236 19.5492 88.9296 19.5301 88.9351 19.5128L88.9745 19.3897C88.9797 19.3718 88.9852 19.3523 88.9903 19.3362C89.0065 19.2819 89.0226 19.2266 89.038 19.1708C89.0432 19.1532 89.0479 19.1352 89.0526 19.1173C89.0645 19.0742 89.0763 19.0312 89.0877 18.9874C89.0929 18.9676 89.098 18.9477 89.1035 18.9279C89.1181 18.8703 89.1327 18.8123 89.1469 18.7535L89.1587 18.7045C89.1698 18.6577 89.1808 18.6105 89.1915 18.563L89.2057 18.4994C89.2191 18.4384 89.2325 18.3774 89.2451 18.3153C89.2479 18.3033 89.2503 18.2909 89.2526 18.2778C89.2637 18.2243 89.2743 18.1701 89.2846 18.1158C89.2889 18.0937 89.2929 18.0716 89.2972 18.0496C89.3075 17.9938 89.3173 17.9373 89.3272 17.8815C89.3292 17.8695 89.3315 17.8579 89.3335 17.8463C89.3445 17.7805 89.3553 17.7141 89.3658 17.6472C89.3694 17.6248 89.3729 17.6023 89.3761 17.5795C89.3844 17.5252 89.3923 17.4706 89.4002 17.4152L89.4073 17.3643C89.4167 17.2955 89.4258 17.2262 89.4345 17.1559C89.4372 17.1338 89.4396 17.1117 89.4424 17.0892C89.4492 17.0334 89.4555 16.9772 89.4613 16.9208C89.4637 16.9006 89.466 16.8808 89.468 16.8606C89.4756 16.7882 89.4827 16.7153 89.4893 16.6417C89.4893 16.6211 89.4929 16.6005 89.4944 16.5795C89.4996 16.5204 89.5047 16.4609 89.509 16.401C89.509 16.3789 89.5126 16.3569 89.5142 16.3348C89.5197 16.2584 89.5248 16.1816 89.5296 16.1042C89.5296 16.0867 89.5296 16.0668 89.5323 16.0511C89.5359 15.9867 89.5394 15.922 89.5422 15.8569C89.5422 15.8333 89.5422 15.8097 89.5453 15.7861C89.5485 15.7057 89.5516 15.6248 89.554 15.5429C89.554 15.5316 89.554 15.52 89.554 15.5084C89.5561 15.4356 89.5577 15.362 89.5587 15.2876C89.5587 15.2633 89.5587 15.239 89.5587 15.2147C89.5587 15.1348 89.5587 15.0545 89.5587 14.9737V14.9549C89.5587 14.8689 89.5587 14.7817 89.5587 14.693V14.6181C89.5587 14.5433 89.5556 14.4647 89.5536 14.3868V14.3445C89.5509 14.2547 89.5473 14.1638 89.5438 14.0725C89.5438 14.0489 89.5414 14.0249 89.5406 14.0014C89.5372 13.9245 89.5332 13.8472 89.5288 13.7693C89.5288 13.7502 89.5288 13.7319 89.5256 13.7113C89.5201 13.6178 89.514 13.5235 89.5075 13.4284L89.5027 13.3622C89.4968 13.2828 89.4909 13.2031 89.4842 13.1226C89.4842 13.0994 89.4806 13.0762 89.4787 13.053C89.4704 12.9557 89.4613 12.8573 89.4518 12.7585C89.4518 12.7398 89.4479 12.7211 89.4463 12.702C89.438 12.6178 89.429 12.5328 89.4199 12.4471C89.4171 12.4213 89.4144 12.3959 89.4112 12.37C89.4002 12.2682 89.3883 12.1661 89.3757 12.0624C89.3757 12.0497 89.3722 12.037 89.3706 12.025C89.3593 11.9322 89.3473 11.8389 89.3347 11.7451C89.3307 11.7174 89.3272 11.6897 89.3232 11.662C89.3085 11.5557 89.2934 11.4485 89.2779 11.3405C87.7 0.684277 76.5181 2.41366 76.5181 2.41366L76.8763 4.70328L70.1138 11.4808L70.4092 14.0979L72.971 15.5949C73.0852 15.3195 73.2318 15.0573 73.4081 14.8131C75.0609 13.0044 78.2676 11.5845 79.1856 11.29C79.3694 11.2312 79.4739 11.2016 79.4739 11.2016C75.083 16.593 75.5824 22.7695 75.7781 24.2418C75.5745 24.2792 75.4171 24.5124 75.4171 24.7968C75.4171 25.1067 75.6037 25.3582 75.8337 25.3582H77.2455C74.8975 26.2906 73.0336 28.0665 72.0609 30.2982C72.0598 30.3012 72.0584 30.3042 72.057 30.3072C71.9852 30.4728 71.9184 30.6409 71.8566 30.8113C71.8567 30.813 71.8567 30.8148 71.8566 30.8165C71.84 30.8629 71.8238 30.9093 71.8081 30.9561C71.8021 30.9729 71.7962 30.9898 71.7907 31.007C71.7765 31.0489 71.7633 31.0912 71.7512 31.1339C71.7441 31.1556 71.7374 31.1777 71.7307 31.1994C71.7181 31.2394 71.7059 31.2798 71.694 31.3202L71.6727 31.3951C71.6617 31.4325 71.6507 31.4726 71.6404 31.5115C71.6329 31.5392 71.6258 31.5665 71.6187 31.5942C71.6092 31.6316 71.5994 31.669 71.5903 31.7065C71.5812 31.7439 71.5725 31.7813 71.5639 31.821C71.5552 31.8606 71.5441 31.9071 71.5347 31.9505H70.9718C70.8635 31.9482 70.7559 31.9665 70.6552 32.0042C70.5545 32.0419 70.4627 32.0984 70.3853 32.1702C70.3079 32.242 70.2464 32.3278 70.2044 32.4225C70.1625 32.5172 70.1408 32.6189 70.1408 32.7216C70.1408 32.8243 70.1625 32.926 70.2044 33.0207C70.2464 33.1154 70.3079 33.2011 70.3853 33.273C70.4627 33.3448 70.5545 33.4012 70.6552 33.439C70.7559 33.4767 70.8635 33.495 70.9718 33.4927H90.9228C91.0311 33.495 91.1387 33.4767 91.2394 33.439C91.3401 33.4012 91.4319 33.3448 91.5093 33.273C91.5867 33.2011 91.6482 33.1154 91.6902 33.0207C91.7321 32.926 91.7538 32.8243 91.7538 32.7216C91.7538 32.6189 91.7321 32.5172 91.6902 32.4225C91.6482 32.3278 91.5867 32.242 91.5093 32.1702C91.4319 32.0984 91.3401 32.0419 91.2394 32.0042C91.1387 31.9665 91.0311 31.9482 90.9228 31.9505L90.9157 31.9437Z" fill="#595653"/>
<path d="M99.2669 15V3.34411H102.264V7.95652H103.097L106.66 3.34411H109.924L105.428 8.78908L110.09 15H106.593L103.097 10.0546H102.264V15H99.2669ZM111.755 15.2165C111.667 15.2165 111.539 15.2109 111.372 15.1998C111.217 15.1998 111.095 15.1887 111.006 15.1665V12.5356C111.039 12.5467 111.123 12.5523 111.256 12.5523C111.478 12.5523 111.667 12.5245 111.822 12.469C111.988 12.4024 112.127 12.2692 112.238 12.0694C112.349 11.8585 112.444 11.5532 112.521 11.1536C112.61 10.7539 112.671 10.2211 112.704 9.55504C112.738 8.87788 112.754 8.02867 112.754 7.00739V3.34411H121.58V15H118.566V5.79185H115.552V7.34042C115.552 8.72802 115.496 9.89361 115.385 10.8372C115.274 11.7697 115.108 12.5245 114.886 13.1018C114.675 13.679 114.414 14.123 114.103 14.4339C113.792 14.7336 113.437 14.9389 113.038 15.05C112.649 15.161 112.222 15.2165 111.755 15.2165ZM126.25 15.2165C126.128 15.2165 126.006 15.2109 125.883 15.1998C125.772 15.1998 125.673 15.1832 125.584 15.1499V12.6688C125.673 12.6799 125.761 12.691 125.85 12.7021C125.939 12.7132 126.044 12.7188 126.167 12.7188C126.488 12.7188 126.738 12.6966 126.916 12.6522C127.093 12.5967 127.232 12.5079 127.332 12.3858C127.432 12.2525 127.515 12.0749 127.582 11.8529L122.903 3.34411H125.95L129.047 9.25531L131.478 3.34411H134.409L130.512 12.1526C130.257 12.7299 130.002 13.2128 129.747 13.6013C129.502 13.9898 129.219 14.3062 128.897 14.5504C128.586 14.7835 128.215 14.95 127.782 15.05C127.36 15.161 126.849 15.2165 126.25 15.2165ZM135.74 15V3.34411H144.316V5.8085H138.738V7.54023H140.652C142.273 7.54023 143.467 7.87326 144.232 8.53931C145.01 9.19426 145.398 10.0768 145.398 11.1869C145.398 12.3858 145.01 13.3238 144.232 14.0009C143.467 14.667 142.273 15 140.652 15H135.74ZM138.738 12.5356H140.319C141.041 12.5356 141.552 12.4191 141.851 12.1859C142.151 11.9417 142.301 11.6087 142.301 11.1869C142.301 10.765 142.151 10.4376 141.851 10.2044C141.552 9.96022 141.041 9.83811 140.319 9.83811H138.738V12.5356ZM105.328 33V28.3543C105.039 28.543 104.656 28.7151 104.179 28.8705C103.713 29.0148 103.158 29.087 102.514 29.087C101.304 29.087 100.388 28.7872 99.7664 28.1878C99.1559 27.5772 98.8506 26.6004 98.8506 25.2572V21.3441H101.848V24.7576C101.848 25.4126 101.987 25.8844 102.264 26.173C102.542 26.4505 102.93 26.5893 103.43 26.5893C103.885 26.5893 104.268 26.5393 104.579 26.4394C104.889 26.3284 105.139 26.2118 105.328 26.0897V21.3441H108.342V33H105.328ZM110.666 33V21.3441H119.158V23.642H113.663V25.9232H118.658V28.0879H113.663V30.7021H119.158V33H110.666ZM124.146 33V23.8085H120.566V21.3441H130.723V23.8085H127.143V33H124.146ZM132.228 33V21.3441H135.225V25.2072H136.641C138.261 25.2072 139.455 25.5569 140.221 26.2562C140.998 26.9556 141.386 27.9047 141.386 29.1036C141.386 30.3025 140.998 31.2516 140.221 31.951C139.455 32.6503 138.261 33 136.641 33H132.228ZM135.225 30.5356H136.308C137.007 30.5356 137.512 30.4024 137.823 30.136C138.134 29.8696 138.289 29.5254 138.289 29.1036C138.289 28.6818 138.134 28.3376 137.823 28.0712C137.512 27.8048 137.007 27.6716 136.308 27.6716H135.225V30.5356ZM142.219 33V21.3441H145.216V33H142.219ZM147.546 33V21.3441H152.291C153.379 21.3441 154.273 21.5051 154.972 21.827C155.672 22.1378 156.188 22.593 156.521 23.1924C156.865 23.7807 157.037 24.4912 157.037 25.3238C157.037 26.1452 156.865 26.8557 156.521 27.4551C156.188 28.0546 155.672 28.5153 154.972 28.8372C154.273 29.148 153.379 29.3034 152.291 29.3034H150.543V33H147.546ZM150.543 26.839H151.958C152.724 26.839 153.263 26.7114 153.574 26.4561C153.884 26.2007 154.04 25.8233 154.04 25.3238C154.04 24.8242 153.884 24.4468 153.574 24.1915C153.263 23.9362 152.724 23.8085 151.958 23.8085H150.543V26.839ZM158.701 33V21.3441H167.193V23.642H161.698V25.9232H166.693V28.0879H161.698V30.7021H167.193V33H158.701ZM168.355 33L172.151 26.9223L168.521 21.3441H171.835L174.116 24.8742L176.431 21.3441H179.678L176.064 26.889L179.844 33H176.497L174.066 28.9204L171.635 33H168.355ZM185.584 33V21.3441H188.581V25.9565H189.414L192.977 21.3441H196.241L191.745 26.7891L196.408 33H192.911L189.414 28.0546H188.581V33H185.584ZM202.911 33.2165C202.156 33.2165 201.435 33.1055 200.747 32.8834C200.058 32.6614 199.453 32.3117 198.932 31.8344C198.41 31.3571 197.999 30.741 197.699 29.9861C197.4 29.2202 197.25 28.3099 197.25 27.2553V26.9223C197.25 25.901 197.4 25.024 197.699 24.2914C197.999 23.5587 198.41 22.9593 198.932 22.4931C199.453 22.0268 200.058 21.6827 200.747 21.4607C201.435 21.2387 202.156 21.1276 202.911 21.1276C203.688 21.1276 204.415 21.2387 205.093 21.4607C205.77 21.6827 206.369 22.0268 206.891 22.4931C207.413 22.9593 207.823 23.5587 208.123 24.2914C208.423 25.024 208.573 25.901 208.573 26.9223V27.2553C208.573 28.3099 208.423 29.2202 208.123 29.9861C207.823 30.741 207.413 31.3571 206.891 31.8344C206.369 32.3117 205.77 32.6614 205.093 32.8834C204.415 33.1055 203.688 33.2165 202.911 33.2165ZM202.895 30.7188C203.35 30.7188 203.772 30.6189 204.16 30.4191C204.549 30.2081 204.859 29.8585 205.093 29.37C205.337 28.8705 205.459 28.1656 205.459 27.2553V26.9223C205.459 26.0564 205.337 25.3848 205.093 24.9075C204.859 24.4301 204.549 24.0971 204.16 23.9084C203.772 23.7197 203.35 23.6253 202.895 23.6253C202.462 23.6253 202.051 23.7197 201.662 23.9084C201.274 24.0971 200.958 24.4301 200.713 24.9075C200.469 25.3848 200.347 26.0564 200.347 26.9223V27.2553C200.347 28.1656 200.469 28.8705 200.713 29.37C200.958 29.8585 201.274 30.2081 201.662 30.4191C202.051 30.6189 202.462 30.7188 202.895 30.7188ZM210.48 33V21.3441H213.477V25.7734H217.806V21.3441H220.804V33H217.806V28.2377H213.477V33H210.48ZM223.131 33V21.3441H231.623V23.642H226.128V25.9232H231.123V28.0879H226.128V30.7021H231.623V33H223.131ZM233.538 33V21.3441H236.535V28.3376L241.114 21.3441H243.862V33H240.864V26.0065L236.285 33H233.538ZM238.7 20.6947C237.923 20.6947 237.284 20.5893 236.785 20.3783C236.296 20.1563 235.936 19.8344 235.703 19.4126C235.481 18.9907 235.37 18.4634 235.37 17.8307H237.801C237.801 18.2969 237.867 18.6133 238 18.7798C238.145 18.9352 238.378 19.0129 238.7 19.0129C239.022 19.0129 239.249 18.9352 239.382 18.7798C239.527 18.6133 239.599 18.2969 239.599 17.8307H242.03C242.03 18.4634 241.913 18.9907 241.68 19.4126C241.458 19.8344 241.103 20.1563 240.615 20.3783C240.126 20.5893 239.488 20.6947 238.7 20.6947Z" fill="#595653"/>
</svg>
