<svg width="245" height="36" viewBox="0 0 245 36" fill="none" xmlns="http://www.w3.org/2000/svg">
<g clip-path="url(#clip0_899_361)">
<path d="M20.8163 31.9435H20.2534C20.2534 31.9375 20.2506 31.9315 20.2495 31.9259L20.2341 31.857C20.2242 31.8118 20.2135 31.7668 20.2025 31.7223C20.1978 31.7013 20.1926 31.6804 20.1875 31.6594C20.1729 31.6007 20.1575 31.5419 20.1417 31.4832L20.137 31.4663C20.1196 31.4027 20.1014 31.3393 20.0825 31.2762L20.0635 31.2152C20.0505 31.1718 20.0367 31.1288 20.0241 31.0857C20.0166 31.0621 20.0087 31.0389 20.0012 31.0157C19.9874 30.9742 19.9731 30.9327 19.9585 30.8915C19.951 30.8698 19.9431 30.8477 19.9356 30.8264C19.9172 30.7747 19.8983 30.7235 19.8788 30.6726C19.8745 30.6617 19.8709 30.6512 19.8666 30.6404C19.8437 30.5805 19.8196 30.521 19.7951 30.4615C19.7864 30.4398 19.7773 30.4184 19.7683 30.3971C19.7517 30.3597 19.7351 30.3185 19.7181 30.2796L19.6862 30.2074C19.6696 30.1699 19.6526 30.1325 19.6352 30.0951C19.6246 30.0719 19.6135 30.0483 19.6025 30.0251C19.5823 29.9821 19.563 29.9394 19.5405 29.8971C19.5322 29.881 19.5247 29.8646 19.5164 29.8481C19.4884 29.7923 19.4596 29.7358 19.4304 29.6819L19.3909 29.6119L19.3352 29.5105L19.2918 29.4357C19.2736 29.4042 19.2555 29.3728 19.2369 29.3414C19.2223 29.3159 19.2073 29.2905 19.1923 29.2665C19.1718 29.2325 19.1529 29.1992 19.1304 29.1655L19.0735 29.0742C19.0467 29.0322 19.0198 28.99 18.9922 28.9484C18.9748 28.9222 18.9575 28.8964 18.9397 28.8706C18.9219 28.8447 18.9026 28.8152 18.8836 28.7879C18.8647 28.7605 18.8442 28.7332 18.8268 28.7063C18.8094 28.6793 18.7905 28.655 18.7719 28.6314C18.7534 28.6079 18.7324 28.5764 18.7123 28.5491L18.6567 28.4742C18.6172 28.4245 18.5809 28.3747 18.5422 28.3246L18.4881 28.2561C18.4652 28.2272 18.4415 28.1988 18.4182 28.1704L18.3661 28.1075C18.342 28.0787 18.3176 28.0502 18.2931 28.0214L18.2418 27.9623L18.1652 27.8755L18.1198 27.8253C18.0254 27.7216 17.9287 27.6195 17.8297 27.5199L17.7862 27.4761L17.6954 27.3874L17.6508 27.3448C17.6192 27.3145 17.5877 27.2845 17.5557 27.255L17.5229 27.225C17.4112 27.1221 17.2963 27.0218 17.1795 26.9256L17.1475 26.8991C17.1115 26.8691 17.0752 26.8396 17.0386 26.8104L17.0023 26.7812C16.9628 26.7512 16.9269 26.7217 16.8886 26.6921L16.8692 26.6775C16.7401 26.5787 16.6079 26.4825 16.4745 26.3901L16.4559 26.377C16.4137 26.3482 16.3714 26.3197 16.3288 26.2917L16.3008 26.2733C16.2574 26.2445 16.2135 26.2164 16.1697 26.1884L16.1622 26.1839C16.017 26.0918 15.8689 26.0036 15.7181 25.9193L15.7122 25.9155C15.6645 25.889 15.6167 25.8631 15.5689 25.8373L15.548 25.8261C15.2938 25.6901 15.0327 25.5654 14.7648 25.4519L14.7482 25.4447C14.6776 25.4148 14.6065 25.386 14.5347 25.3575H15.9475C16.1776 25.3575 16.3643 25.1064 16.3643 24.7962C16.3643 24.4859 16.1776 24.2348 15.9475 24.2348H15.5267C15.5527 24.1719 15.5816 24.1008 15.6127 24.0207C16.0106 23.7857 16.7109 23.285 17.4057 22.3651L17.4112 22.358C17.4639 22.2891 17.5156 22.2179 17.5664 22.1443L17.5766 22.1297C17.6271 22.0575 17.6777 21.983 17.7274 21.9051L17.7408 21.8846C17.7645 21.8471 17.7882 21.8097 17.8119 21.7723C17.8119 21.7723 17.8119 21.7693 17.8147 21.7674C17.8391 21.73 17.8632 21.6888 17.8873 21.6488L17.9027 21.623C17.9232 21.5885 17.9441 21.5534 17.9643 21.5178C17.9682 21.5114 17.9722 21.5051 17.9757 21.4983C17.999 21.4579 18.0223 21.4168 18.0452 21.3752L18.061 21.3464C18.0799 21.312 18.0985 21.2772 18.117 21.242C18.1226 21.2323 18.1281 21.2222 18.1332 21.212C18.1553 21.1698 18.1774 21.1271 18.1995 21.0837L18.2149 21.0534C18.2323 21.0182 18.2501 20.9823 18.2674 20.9463L18.2864 20.9089C18.3077 20.8647 18.3286 20.8198 18.3495 20.7746L18.3626 20.7457C18.3799 20.7083 18.3969 20.6709 18.4139 20.6335L18.434 20.5886C18.4537 20.5433 18.4735 20.4976 18.4924 20.4516C18.496 20.4434 18.4995 20.4347 18.5027 20.4265C18.5205 20.3842 18.5378 20.3412 18.5552 20.2978L18.5749 20.2484C18.5911 20.2072 18.6073 20.1657 18.6231 20.1241L18.6349 20.0927C18.6535 20.0433 18.6716 19.9928 18.6898 19.943L18.7088 19.8898C18.723 19.8502 18.7368 19.8098 18.7506 19.7693C18.7557 19.7544 18.7609 19.7394 18.7656 19.7244C18.783 19.6728 18.8003 19.62 18.8173 19.5672C18.8228 19.5489 18.8288 19.5298 18.8343 19.5126L18.8738 19.3895C18.8789 19.3715 18.8844 19.3521 18.8896 19.336C18.9057 19.2817 18.9219 19.2263 18.9373 19.1705C18.9424 19.153 18.9472 19.135 18.9519 19.117C18.9638 19.074 18.9756 19.031 18.9871 18.9872C18.9922 18.9673 18.9973 18.9475 19.0028 18.9277C19.0175 18.87 19.0321 18.812 19.0463 18.7533L19.0581 18.7042C19.0692 18.6575 19.0802 18.6103 19.0909 18.5628L19.1051 18.4992C19.1185 18.4382 19.1319 18.3771 19.1446 18.315C19.1473 18.3031 19.1497 18.2907 19.1521 18.2776C19.1631 18.2241 19.1738 18.1698 19.184 18.1156C19.1884 18.0935 19.1923 18.0714 19.1967 18.0493C19.2069 17.9936 19.2168 17.937 19.2267 17.8813C19.2286 17.8693 19.231 17.8577 19.233 17.8461C19.244 17.7802 19.2548 17.7139 19.2654 17.647C19.2689 17.6245 19.2725 17.6021 19.2756 17.5793C19.2839 17.525 19.2918 17.4704 19.2997 17.415L19.3068 17.3641C19.3163 17.2952 19.3254 17.226 19.334 17.1556C19.3368 17.1335 19.3392 17.1115 19.3419 17.089C19.3488 17.0331 19.3551 16.977 19.3609 16.9206C19.3633 16.9004 19.3656 16.8805 19.3676 16.8603C19.3752 16.788 19.3823 16.715 19.3889 16.6414C19.3889 16.6208 19.3925 16.6002 19.394 16.5793C19.3992 16.5202 19.4043 16.4606 19.4086 16.4008C19.4086 16.3787 19.4122 16.3566 19.4138 16.3345C19.4193 16.2582 19.4244 16.1813 19.4292 16.104C19.4292 16.0864 19.4292 16.0666 19.4319 16.0509C19.4355 15.9865 19.439 15.9217 19.4418 15.8566C19.4418 15.833 19.4418 15.8095 19.445 15.7859C19.4481 15.7054 19.4513 15.6246 19.4537 15.5426C19.4537 15.5314 19.4537 15.5198 19.4537 15.5082C19.4558 15.4353 19.4573 15.3617 19.4584 15.2874C19.4584 15.2631 19.4584 15.2387 19.4584 15.2144C19.4584 15.1346 19.4584 15.0542 19.4584 14.9734V14.9547C19.4584 14.8686 19.4584 14.7814 19.4584 14.6927V14.6179C19.4584 14.543 19.4552 14.4644 19.4533 14.3866V14.3443C19.4505 14.2545 19.4469 14.1635 19.4434 14.0722C19.4434 14.0486 19.441 14.0247 19.4402 14.0011C19.4368 13.9243 19.4329 13.8469 19.4284 13.7691C19.4284 13.75 19.4284 13.7317 19.4252 13.7111C19.4197 13.6175 19.4136 13.5232 19.4071 13.4282L19.4023 13.3619C19.3964 13.2826 19.3905 13.2029 19.3838 13.1224C19.3838 13.0992 19.3802 13.076 19.3783 13.0528C19.37 12.9555 19.3609 12.8571 19.3514 12.7583C19.3514 12.7395 19.3475 12.7208 19.3459 12.7017C19.3376 12.6175 19.3285 12.5326 19.3194 12.4469C19.3167 12.4211 19.3139 12.3956 19.3108 12.3698C19.2997 12.268 19.2879 12.1658 19.2752 12.0622C19.2752 12.0494 19.2717 12.0367 19.2701 12.0247C19.2588 11.9319 19.2468 11.8386 19.2342 11.7448C19.2302 11.7171 19.2267 11.6894 19.2227 11.6617C19.208 11.5554 19.1929 11.4483 19.1773 11.3402C17.5983 0.684033 6.40876 2.41341 6.40876 2.41341L6.76719 4.70304L0 11.4806L0.295667 14.0977L2.85917 15.5947C2.97345 15.3193 3.12017 15.057 3.29655 14.8129C4.95055 13.0041 8.15947 11.5843 9.07805 11.2897C9.26201 11.231 9.36662 11.2014 9.36662 11.2014C4.97266 16.5928 5.47241 22.7693 5.66821 24.2415C5.46452 24.279 5.30701 24.5121 5.30701 24.7966C5.30701 25.1064 5.49373 25.3579 5.72387 25.3579H7.13668C4.78699 26.2904 2.92185 28.0663 1.94848 30.2979C1.94734 30.301 1.94602 30.304 1.94454 30.3069C1.87269 30.4726 1.80585 30.6406 1.74401 30.811C1.74411 30.8128 1.74411 30.8145 1.74401 30.8163C1.72743 30.8627 1.71124 30.9091 1.69545 30.9559C1.68953 30.9727 1.68361 30.9895 1.67808 31.0068C1.66387 31.0487 1.65071 31.091 1.63861 31.1336C1.6315 31.1553 1.62479 31.1774 1.61808 31.1991C1.60545 31.2392 1.59321 31.2796 1.58137 31.32L1.56005 31.3948C1.549 31.4323 1.53795 31.4723 1.52768 31.5112C1.52018 31.5389 1.51308 31.5662 1.50597 31.5939C1.4965 31.6314 1.48663 31.6688 1.47755 31.7062C1.46847 31.7436 1.45978 31.7811 1.4511 31.8207C1.44241 31.8604 1.43136 31.9068 1.42189 31.9502H0.85858C0.750258 31.948 0.642551 31.9662 0.541778 32.004C0.441006 32.0417 0.3492 32.0981 0.271747 32.17C0.194294 32.2418 0.13275 32.3276 0.0907365 32.4223C0.0487226 32.5169 0.0270812 32.6186 0.0270812 32.7214C0.0270812 32.8241 0.0487226 32.9258 0.0907365 33.0204C0.13275 33.1151 0.194294 33.2009 0.271747 33.2727C0.3492 33.3446 0.441006 33.401 0.541778 33.4387C0.642551 33.4765 0.750258 33.4947 0.85858 33.4925H20.8234C20.9318 33.4947 21.0395 33.4765 21.1402 33.4387C21.241 33.401 21.3328 33.3446 21.4103 33.2727C21.4877 33.2009 21.5493 33.1151 21.5913 33.0204C21.6333 32.9258 21.6549 32.8241 21.6549 32.7214C21.6549 32.6186 21.6333 32.5169 21.5913 32.4223C21.5493 32.3276 21.4877 32.2418 21.4103 32.17C21.3328 32.0981 21.241 32.0417 21.1402 32.004C21.0395 31.9662 20.9318 31.948 20.8234 31.9502L20.8163 31.9435Z" fill="#595653"/>
<path d="M44.203 31.9435H43.6401C43.6401 31.9375 43.6374 31.9315 43.6362 31.9259L43.6208 31.857C43.6109 31.8118 43.6003 31.7668 43.5892 31.7223C43.5845 31.7013 43.5793 31.6804 43.5742 31.6594C43.5596 31.6007 43.5442 31.5419 43.5284 31.4832L43.5237 31.4663C43.5063 31.4027 43.4882 31.3393 43.4692 31.2762L43.4503 31.2152C43.4372 31.1718 43.4234 31.1288 43.4108 31.0857C43.4033 31.0621 43.3954 31.0389 43.3879 31.0157C43.3741 30.9742 43.3599 30.9327 43.3453 30.8915C43.3378 30.8698 43.3299 30.8477 43.3224 30.8264C43.3039 30.7747 43.285 30.7235 43.2655 30.6726C43.2612 30.6617 43.2576 30.6512 43.2533 30.6404C43.2304 30.5805 43.2063 30.521 43.1818 30.4615C43.1731 30.4398 43.1641 30.4184 43.155 30.3971C43.1384 30.3597 43.1218 30.3185 43.1049 30.2796L43.0729 30.2074C43.0563 30.1699 43.0393 30.1325 43.022 30.0951C43.0113 30.0719 43.0002 30.0483 42.9892 30.0251C42.9691 29.9821 42.9497 29.9394 42.9272 29.8971C42.9189 29.881 42.9114 29.8646 42.9031 29.8481C42.8751 29.7923 42.8463 29.7358 42.8171 29.6819L42.7776 29.6119L42.7219 29.5105L42.6785 29.4357C42.6604 29.4042 42.6422 29.3728 42.6237 29.3414C42.609 29.3159 42.594 29.2905 42.579 29.2665C42.5585 29.2325 42.5396 29.1992 42.5171 29.1655L42.4602 29.0742C42.4334 29.0322 42.4065 28.99 42.3789 28.9484C42.3615 28.9222 42.3442 28.8964 42.3264 28.8706C42.3086 28.8447 42.2893 28.8152 42.2703 28.7879C42.2514 28.7605 42.2309 28.7332 42.2135 28.7063C42.1961 28.6793 42.1772 28.655 42.1586 28.6314C42.1401 28.6079 42.1192 28.5764 42.099 28.5491L42.0434 28.4742C42.0039 28.4245 41.9676 28.3747 41.9289 28.3246L41.8748 28.2561C41.8519 28.2272 41.8282 28.1988 41.8049 28.1704L41.7528 28.1075C41.7288 28.0787 41.7043 28.0502 41.6798 28.0214L41.6285 27.9623L41.5519 27.8755L41.5065 27.8253C41.4122 27.7216 41.3155 27.6195 41.2164 27.5199L41.1729 27.4761L41.0822 27.3874L41.0375 27.3448C41.006 27.3145 40.9744 27.2845 40.9424 27.255L40.9096 27.225C40.7979 27.1221 40.6831 27.0218 40.5662 26.9256L40.5342 26.8991C40.4982 26.8691 40.4619 26.8396 40.4253 26.8104L40.389 26.7812C40.3495 26.7512 40.3136 26.7217 40.2753 26.6921L40.2559 26.6775C40.1269 26.5787 39.9946 26.4825 39.8612 26.3901L39.8426 26.377C39.8004 26.3482 39.7582 26.3197 39.7155 26.2917L39.6875 26.2733C39.6441 26.2445 39.6003 26.2164 39.5564 26.1884L39.549 26.1839C39.4037 26.0918 39.2557 26.0036 39.1049 25.9193L39.0989 25.9155C39.0512 25.889 39.0034 25.8631 38.9556 25.8373L38.9347 25.8261C38.6805 25.6901 38.4194 25.5654 38.1515 25.4519L38.135 25.4447C38.0643 25.4148 37.9932 25.386 37.9214 25.3575H39.3342C39.5643 25.3575 39.7511 25.1064 39.7511 24.7962C39.7511 24.4859 39.5643 24.2348 39.3342 24.2348H38.9134C38.9395 24.1719 38.9683 24.1008 38.9995 24.0207C39.3974 23.7857 40.0977 23.285 40.7924 22.3651L40.7979 22.358C40.8506 22.2891 40.9023 22.2179 40.9531 22.1443L40.9633 22.1297C41.0139 22.0575 41.0644 21.983 41.1141 21.9051L41.1276 21.8846C41.1512 21.8471 41.1749 21.8097 41.1986 21.7723C41.1986 21.7723 41.1986 21.7693 41.2014 21.7674C41.2258 21.73 41.2499 21.6888 41.274 21.6488L41.2894 21.623C41.3099 21.5885 41.3308 21.5534 41.351 21.5178C41.3549 21.5114 41.3589 21.5051 41.3624 21.4983C41.3857 21.4579 41.409 21.4168 41.4319 21.3752L41.4477 21.3464C41.4666 21.312 41.4852 21.2772 41.5037 21.242C41.5093 21.2323 41.5148 21.2222 41.5199 21.212C41.542 21.1698 41.5641 21.1271 41.5863 21.0837L41.6016 21.0534C41.619 21.0182 41.6368 20.9823 41.6541 20.9463L41.6731 20.9089C41.6944 20.8647 41.7153 20.8198 41.7363 20.7746L41.7493 20.7457C41.7667 20.7083 41.7836 20.6709 41.8006 20.6335L41.8207 20.5886C41.8405 20.5433 41.8602 20.4976 41.8792 20.4516C41.8827 20.4434 41.8863 20.4347 41.8894 20.4265C41.9072 20.3842 41.9246 20.3412 41.9419 20.2978L41.9617 20.2484C41.9778 20.2072 41.994 20.1657 42.0098 20.1241L42.0217 20.0927C42.0402 20.0433 42.0584 19.9928 42.0765 19.943L42.0955 19.8898C42.1097 19.8502 42.1235 19.8098 42.1373 19.7693C42.1425 19.7544 42.1476 19.7394 42.1523 19.7244C42.1697 19.6728 42.1871 19.62 42.204 19.5672C42.2096 19.5489 42.2155 19.5298 42.221 19.5126L42.2605 19.3895C42.2656 19.3715 42.2711 19.3521 42.2763 19.336C42.2925 19.2817 42.3086 19.2263 42.324 19.1705C42.3292 19.153 42.3339 19.135 42.3386 19.117C42.3505 19.074 42.3623 19.031 42.3738 18.9872C42.3789 18.9673 42.384 18.9475 42.3896 18.9277C42.4042 18.87 42.4188 18.812 42.433 18.7533L42.4448 18.7042C42.4559 18.6575 42.4669 18.6103 42.4776 18.5628L42.4918 18.4992C42.5052 18.4382 42.5186 18.3771 42.5313 18.315C42.534 18.3031 42.5364 18.2907 42.5388 18.2776C42.5498 18.2241 42.5605 18.1698 42.5708 18.1156C42.5751 18.0935 42.579 18.0714 42.5834 18.0493C42.5937 17.9936 42.6035 17.937 42.6134 17.8813C42.6154 17.8693 42.6177 17.8577 42.6197 17.8461C42.6308 17.7802 42.6415 17.7139 42.6521 17.647C42.6556 17.6245 42.6592 17.6021 42.6623 17.5793C42.6706 17.525 42.6785 17.4704 42.6864 17.415L42.6935 17.3641C42.703 17.2952 42.7121 17.226 42.7208 17.1556C42.7235 17.1335 42.7259 17.1115 42.7287 17.089C42.7355 17.0331 42.7418 16.977 42.7476 16.9206C42.75 16.9004 42.7523 16.8805 42.7543 16.8603C42.7619 16.788 42.7691 16.715 42.7756 16.6414C42.7756 16.6208 42.7792 16.6002 42.7808 16.5793C42.7859 16.5202 42.791 16.4606 42.7954 16.4008C42.7954 16.3787 42.7989 16.3566 42.8005 16.3345C42.806 16.2582 42.8112 16.1813 42.8159 16.104C42.8159 16.0864 42.8159 16.0666 42.8187 16.0509C42.8222 15.9865 42.8258 15.9217 42.8285 15.8566C42.8285 15.833 42.8285 15.8095 42.8317 15.7859C42.8348 15.7054 42.838 15.6246 42.8404 15.5426C42.8404 15.5314 42.8404 15.5198 42.8404 15.5082C42.8425 15.4353 42.8441 15.3617 42.8451 15.2874C42.8451 15.2631 42.8451 15.2387 42.8451 15.2144C42.8451 15.1346 42.8451 15.0542 42.8451 14.9734V14.9547C42.8451 14.8686 42.8451 14.7814 42.8451 14.6927V14.6179C42.8451 14.543 42.8419 14.4644 42.84 14.3866V14.3443C42.8372 14.2545 42.8337 14.1635 42.8301 14.0722C42.8301 14.0486 42.8277 14.0247 42.8269 14.0011C42.8235 13.9243 42.8196 13.8469 42.8151 13.7691C42.8151 13.75 42.8151 13.7317 42.8119 13.7111C42.8064 13.6175 42.8004 13.5232 42.7938 13.4282L42.7891 13.3619C42.7831 13.2826 42.7772 13.2029 42.7705 13.1224C42.7705 13.0992 42.7669 13.076 42.765 13.0528C42.7567 12.9555 42.7476 12.8571 42.7381 12.7583C42.7381 12.7395 42.7342 12.7208 42.7326 12.7017C42.7243 12.6175 42.7152 12.5326 42.7062 12.4469C42.7034 12.4211 42.7006 12.3956 42.6975 12.3698C42.6864 12.268 42.6746 12.1658 42.6619 12.0622C42.6619 12.0494 42.6584 12.0367 42.6568 12.0247C42.6455 11.9319 42.6335 11.8386 42.6209 11.7448C42.6169 11.7171 42.6134 11.6894 42.6094 11.6617C42.5947 11.5554 42.5796 11.4483 42.564 11.3402C40.985 0.684033 29.7955 2.41341 29.7955 2.41341L30.1539 4.70304L23.3867 11.4806L23.6824 14.0977L26.2459 15.5947C26.3602 15.3193 26.5069 15.057 26.6833 14.8129C28.3373 13.0041 31.5462 11.5843 32.4648 11.2897C32.6487 11.231 32.7533 11.2014 32.7533 11.2014C28.3594 16.5928 28.8591 22.7693 29.0549 24.2415C28.8512 24.279 28.6937 24.5121 28.6937 24.7966C28.6937 25.1064 28.8804 25.3579 29.1106 25.3579H30.5234C28.1737 26.2904 26.3086 28.0663 25.3352 30.2979C25.3341 30.301 25.3327 30.304 25.3313 30.3069C25.2594 30.4726 25.1926 30.6406 25.1307 30.811C25.1308 30.8128 25.1308 30.8145 25.1307 30.8163C25.1141 30.8627 25.098 30.9091 25.0822 30.9559C25.0762 30.9727 25.0703 30.9895 25.0648 31.0068C25.0506 31.0487 25.0374 31.091 25.0253 31.1336C25.0182 31.1553 25.0115 31.1774 25.0048 31.1991C24.9922 31.2392 24.9799 31.2796 24.9681 31.32L24.9468 31.3948C24.9357 31.4323 24.9247 31.4723 24.9144 31.5112C24.9069 31.5389 24.8998 31.5662 24.8927 31.5939C24.8832 31.6314 24.8733 31.6688 24.8643 31.7062C24.8552 31.7436 24.8465 31.7811 24.8378 31.8207C24.8291 31.8604 24.8181 31.9068 24.8086 31.9502H24.2453C24.137 31.948 24.0293 31.9662 23.9285 32.004C23.8277 32.0417 23.7359 32.0981 23.6585 32.17C23.581 32.2418 23.5195 32.3276 23.4775 32.4223C23.4354 32.5169 23.4138 32.6186 23.4138 32.7214C23.4138 32.8241 23.4354 32.9258 23.4775 33.0204C23.5195 33.1151 23.581 33.2009 23.6585 33.2727C23.7359 33.3446 23.8277 33.401 23.9285 33.4387C24.0293 33.4765 24.137 33.4947 24.2453 33.4925H44.2101C44.3185 33.4947 44.4262 33.4765 44.527 33.4387C44.6277 33.401 44.7195 33.3446 44.797 33.2727C44.8744 33.2009 44.936 33.1151 44.978 33.0204C45.02 32.9258 45.0416 32.8241 45.0416 32.7214C45.0416 32.6186 45.02 32.5169 44.978 32.4223C44.936 32.3276 44.8744 32.2418 44.797 32.17C44.7195 32.0981 44.6277 32.0417 44.527 32.004C44.4262 31.9662 44.3185 31.948 44.2101 31.9502L44.203 31.9435Z" fill="#595653"/>
<path d="M67.5907 31.9435H67.0278C67.0278 31.9375 67.0251 31.9315 67.0239 31.9259L67.0085 31.857C66.9986 31.8118 66.988 31.7668 66.9769 31.7223C66.9722 31.7013 66.967 31.6804 66.9619 31.6594C66.9473 31.6007 66.9319 31.5419 66.9161 31.4832L66.9114 31.4663C66.894 31.4027 66.8758 31.3393 66.8569 31.2762L66.838 31.2152C66.8249 31.1718 66.8111 31.1288 66.7985 31.0857C66.791 31.0621 66.7831 31.0389 66.7756 31.0157C66.7618 30.9742 66.7476 30.9327 66.7329 30.8915C66.7254 30.8698 66.7176 30.8477 66.7101 30.8264C66.6916 30.7747 66.6727 30.7235 66.6532 30.6726C66.6489 30.6617 66.6453 30.6512 66.641 30.6404C66.6181 30.5805 66.594 30.521 66.5695 30.4615C66.5608 30.4398 66.5518 30.4184 66.5427 30.3971C66.5261 30.3597 66.5095 30.3185 66.4925 30.2796L66.4606 30.2074C66.444 30.1699 66.427 30.1325 66.4097 30.0951C66.399 30.0719 66.3879 30.0483 66.3769 30.0251C66.3568 29.9821 66.3374 29.9394 66.3149 29.8971C66.3066 29.881 66.2991 29.8646 66.2908 29.8481C66.2628 29.7923 66.234 29.7358 66.2048 29.6819L66.1653 29.6119L66.1096 29.5105L66.0662 29.4357C66.0481 29.4042 66.0299 29.3728 66.0113 29.3414C65.9967 29.3159 65.9817 29.2905 65.9667 29.2665C65.9462 29.2325 65.9273 29.1992 65.9048 29.1655L65.8479 29.0742C65.8211 29.0322 65.7942 28.99 65.7666 28.9484C65.7492 28.9222 65.7319 28.8964 65.7141 28.8706C65.6963 28.8447 65.677 28.8152 65.658 28.7879C65.6391 28.7605 65.6186 28.7332 65.6012 28.7063C65.5838 28.6793 65.5649 28.655 65.5463 28.6314C65.5278 28.6079 65.5069 28.5764 65.4867 28.5491L65.4311 28.4742C65.3916 28.4245 65.3553 28.3747 65.3166 28.3246L65.2625 28.2561C65.2396 28.2272 65.2159 28.1988 65.1926 28.1704L65.1405 28.1075C65.1164 28.0787 65.092 28.0502 65.0675 28.0214L65.0162 27.9623L64.9396 27.8755L64.8942 27.8253C64.7999 27.7216 64.7031 27.6195 64.6041 27.5199L64.5606 27.4761L64.4699 27.3874L64.4252 27.3448C64.3937 27.3145 64.3621 27.2845 64.3301 27.255L64.2973 27.225C64.1856 27.1221 64.0708 27.0218 63.9539 26.9256L63.9219 26.8991C63.8859 26.8691 63.8496 26.8396 63.813 26.8104L63.7767 26.7812C63.7372 26.7512 63.7013 26.7217 63.663 26.6921L63.6436 26.6775C63.5146 26.5787 63.3823 26.4825 63.2489 26.3901L63.2303 26.377C63.1881 26.3482 63.1459 26.3197 63.1032 26.2917L63.0752 26.2733C63.0318 26.2445 62.988 26.2164 62.9441 26.1884L62.9366 26.1839C62.7914 26.0918 62.6433 26.0036 62.4926 25.9193L62.4866 25.9155C62.4389 25.889 62.3911 25.8631 62.3433 25.8373L62.3224 25.8261C62.0682 25.6901 61.8071 25.5654 61.5392 25.4519L61.5226 25.4447C61.452 25.4148 61.3809 25.386 61.3091 25.3575H62.7219C62.952 25.3575 63.1388 25.1064 63.1388 24.7962C63.1388 24.4859 62.952 24.2348 62.7219 24.2348H62.3011C62.3271 24.1719 62.356 24.1008 62.3872 24.0207C62.7851 23.7857 63.4853 23.285 64.1801 22.3651L64.1856 22.358C64.2383 22.2891 64.29 22.2179 64.3408 22.1443L64.351 22.1297C64.4016 22.0575 64.4521 21.983 64.5018 21.9051L64.5152 21.8846C64.5389 21.8471 64.5626 21.8097 64.5863 21.7723C64.5863 21.7723 64.5863 21.7693 64.5891 21.7674C64.6135 21.73 64.6376 21.6888 64.6617 21.6488L64.6771 21.623C64.6976 21.5885 64.7185 21.5534 64.7387 21.5178C64.7426 21.5114 64.7466 21.5051 64.7501 21.4983C64.7734 21.4579 64.7967 21.4168 64.8196 21.3752L64.8354 21.3464C64.8543 21.312 64.8729 21.2772 64.8914 21.242C64.897 21.2323 64.9025 21.2222 64.9076 21.212C64.9297 21.1698 64.9518 21.1271 64.9739 21.0837L64.9893 21.0534C65.0067 21.0182 65.0245 20.9823 65.0418 20.9463L65.0608 20.9089C65.0821 20.8647 65.103 20.8198 65.1239 20.7746L65.137 20.7457C65.1543 20.7083 65.1713 20.6709 65.1883 20.6335L65.2084 20.5886C65.2282 20.5433 65.2479 20.4976 65.2668 20.4516C65.2704 20.4434 65.274 20.4347 65.2771 20.4265C65.2949 20.3842 65.3122 20.3412 65.3296 20.2978L65.3494 20.2484C65.3655 20.2072 65.3817 20.1657 65.3975 20.1241L65.4094 20.0927C65.4279 20.0433 65.4461 19.9928 65.4642 19.943L65.4832 19.8898C65.4974 19.8502 65.5112 19.8098 65.525 19.7693C65.5301 19.7544 65.5353 19.7394 65.54 19.7244C65.5574 19.6728 65.5748 19.62 65.5917 19.5672C65.5973 19.5489 65.6032 19.5298 65.6087 19.5126L65.6482 19.3895C65.6533 19.3715 65.6588 19.3521 65.664 19.336C65.6802 19.2817 65.6963 19.2263 65.7117 19.1705C65.7169 19.153 65.7216 19.135 65.7263 19.117C65.7382 19.074 65.75 19.031 65.7615 18.9872C65.7666 18.9673 65.7717 18.9475 65.7773 18.9277C65.7919 18.87 65.8065 18.812 65.8207 18.7533L65.8325 18.7042C65.8436 18.6575 65.8546 18.6103 65.8653 18.5628L65.8795 18.4992C65.8929 18.4382 65.9063 18.3771 65.919 18.315C65.9217 18.3031 65.9241 18.2907 65.9265 18.2776C65.9375 18.2241 65.9482 18.1698 65.9584 18.1156C65.9628 18.0935 65.9667 18.0714 65.9711 18.0493C65.9813 17.9936 65.9912 17.937 66.0011 17.8813C66.0031 17.8693 66.0054 17.8577 66.0074 17.8461C66.0184 17.7802 66.0292 17.7139 66.0398 17.647C66.0433 17.6245 66.0469 17.6021 66.05 17.5793C66.0583 17.525 66.0662 17.4704 66.0741 17.415L66.0812 17.3641C66.0907 17.2952 66.0998 17.226 66.1085 17.1556C66.1112 17.1335 66.1136 17.1115 66.1163 17.089C66.1232 17.0331 66.1295 16.977 66.1353 16.9206C66.1377 16.9004 66.14 16.8805 66.142 16.8603C66.1496 16.788 66.1567 16.715 66.1633 16.6414C66.1633 16.6208 66.1669 16.6002 66.1685 16.5793C66.1736 16.5202 66.1787 16.4606 66.1831 16.4008C66.1831 16.3787 66.1866 16.3566 66.1882 16.3345C66.1937 16.2582 66.1989 16.1813 66.2036 16.104C66.2036 16.0864 66.2036 16.0666 66.2064 16.0509C66.2099 15.9865 66.2135 15.9217 66.2162 15.8566C66.2162 15.833 66.2162 15.8095 66.2194 15.7859C66.2225 15.7054 66.2257 15.6246 66.2281 15.5426C66.2281 15.5314 66.2281 15.5198 66.2281 15.5082C66.2302 15.4353 66.2318 15.3617 66.2328 15.2874C66.2328 15.2631 66.2328 15.2387 66.2328 15.2144C66.2328 15.1346 66.2328 15.0542 66.2328 14.9734V14.9547C66.2328 14.8686 66.2328 14.7814 66.2328 14.6927V14.6179C66.2328 14.543 66.2296 14.4644 66.2277 14.3866V14.3443C66.2249 14.2545 66.2214 14.1635 66.2178 14.0722C66.2178 14.0486 66.2154 14.0247 66.2146 14.0011C66.2112 13.9243 66.2073 13.8469 66.2028 13.7691C66.2028 13.75 66.2028 13.7317 66.1996 13.7111C66.1941 13.6175 66.1881 13.5232 66.1815 13.4282L66.1767 13.3619C66.1708 13.2826 66.1649 13.2029 66.1582 13.1224C66.1582 13.0992 66.1546 13.076 66.1527 13.0528C66.1444 12.9555 66.1353 12.8571 66.1258 12.7583C66.1258 12.7395 66.1219 12.7208 66.1203 12.7017C66.112 12.6175 66.1029 12.5326 66.0939 12.4469C66.0911 12.4211 66.0883 12.3956 66.0852 12.3698C66.0741 12.268 66.0623 12.1658 66.0496 12.0622C66.0496 12.0494 66.0461 12.0367 66.0445 12.0247C66.0332 11.9319 66.0212 11.8386 66.0086 11.7448C66.0046 11.7171 66.0011 11.6894 65.9971 11.6617C65.9824 11.5554 65.9673 11.4483 65.9517 11.3402C64.3727 0.684033 53.1832 2.41341 53.1832 2.41341L53.5416 4.70304L46.7744 11.4806L47.0701 14.0977L49.6336 15.5947C49.7479 15.3193 49.8946 15.057 50.071 14.8129C51.725 13.0041 54.9339 11.5843 55.8525 11.2897C56.0364 11.231 56.141 11.2014 56.141 11.2014C51.7471 16.5928 52.2468 22.7693 52.4426 24.2415C52.2389 24.279 52.0814 24.5121 52.0814 24.7966C52.0814 25.1064 52.2681 25.3579 52.4983 25.3579H53.9111C51.5614 26.2904 49.6963 28.0663 48.7229 30.2979C48.7218 30.301 48.7204 30.304 48.719 30.3069C48.6471 30.4726 48.5803 30.6406 48.5184 30.811C48.5185 30.8128 48.5185 30.8145 48.5184 30.8163C48.5018 30.8627 48.4857 30.9091 48.4699 30.9559C48.4639 30.9727 48.458 30.9895 48.4525 31.0068C48.4383 31.0487 48.4251 31.091 48.413 31.1336C48.4059 31.1553 48.3992 31.1774 48.3925 31.1991C48.3799 31.2392 48.3676 31.2796 48.3558 31.32L48.3345 31.3948C48.3234 31.4323 48.3124 31.4723 48.3021 31.5112C48.2946 31.5389 48.2875 31.5662 48.2804 31.5939C48.2709 31.6314 48.261 31.6688 48.252 31.7062C48.2429 31.7436 48.2342 31.7811 48.2255 31.8207C48.2168 31.8604 48.2058 31.9068 48.1963 31.9502H47.633C47.5247 31.948 47.417 31.9662 47.3162 32.004C47.2154 32.0417 47.1236 32.0981 47.0462 32.17C46.9687 32.2418 46.9072 32.3276 46.8652 32.4223C46.8231 32.5169 46.8015 32.6186 46.8015 32.7214C46.8015 32.8241 46.8231 32.9258 46.8652 33.0204C46.9072 33.1151 46.9687 33.2009 47.0462 33.2727C47.1236 33.3446 47.2154 33.401 47.3162 33.4387C47.417 33.4765 47.5247 33.4947 47.633 33.4925H67.5978C67.7062 33.4947 67.8139 33.4765 67.9146 33.4387C68.0154 33.401 68.1072 33.3446 68.1847 33.2727C68.2621 33.2009 68.3237 33.1151 68.3657 33.0204C68.4077 32.9258 68.4293 32.8241 68.4293 32.7214C68.4293 32.6186 68.4077 32.5169 68.3657 32.4223C68.3237 32.3276 68.2621 32.2418 68.1847 32.17C68.1072 32.0981 68.0154 32.0417 67.9146 32.004C67.8139 31.9662 67.7062 31.948 67.5978 31.9502L67.5907 31.9435Z" fill="#595653"/>
<path d="M90.9784 31.9435H90.4155C90.4155 31.9375 90.4128 31.9315 90.4116 31.9259L90.3962 31.857C90.3863 31.8118 90.3757 31.7668 90.3646 31.7223C90.3599 31.7013 90.3547 31.6804 90.3496 31.6594C90.335 31.6007 90.3196 31.5419 90.3038 31.4832L90.2991 31.4663C90.2817 31.4027 90.2635 31.3393 90.2446 31.2762L90.2256 31.2152C90.2126 31.1718 90.1988 31.1288 90.1862 31.0857C90.1787 31.0621 90.1708 31.0389 90.1633 31.0157C90.1495 30.9742 90.1352 30.9327 90.1206 30.8915C90.1131 30.8698 90.1052 30.8477 90.0977 30.8264C90.0793 30.7747 90.0604 30.7235 90.0409 30.6726C90.0366 30.6617 90.033 30.6512 90.0287 30.6404C90.0058 30.5805 89.9817 30.521 89.9572 30.4615C89.9485 30.4398 89.9395 30.4184 89.9304 30.3971C89.9138 30.3597 89.8972 30.3185 89.8802 30.2796L89.8483 30.2074C89.8317 30.1699 89.8147 30.1325 89.7973 30.0951C89.7867 30.0719 89.7756 30.0483 89.7646 30.0251C89.7444 29.9821 89.7251 29.9394 89.7026 29.8971C89.6943 29.881 89.6868 29.8646 89.6785 29.8481C89.6505 29.7923 89.6217 29.7358 89.5925 29.6819L89.553 29.6119L89.4973 29.5105L89.4539 29.4357C89.4358 29.4042 89.4176 29.3728 89.399 29.3414C89.3844 29.3159 89.3694 29.2905 89.3544 29.2665C89.3339 29.2325 89.315 29.1992 89.2925 29.1655L89.2356 29.0742C89.2088 29.0322 89.1819 28.99 89.1543 28.9484C89.1369 28.9222 89.1196 28.8964 89.1018 28.8706C89.084 28.8447 89.0647 28.8152 89.0457 28.7879C89.0268 28.7605 89.0063 28.7332 88.9889 28.7063C88.9715 28.6793 88.9526 28.655 88.934 28.6314C88.9155 28.6079 88.8946 28.5764 88.8744 28.5491L88.8188 28.4742C88.7793 28.4245 88.743 28.3747 88.7043 28.3246L88.6502 28.2561C88.6273 28.2272 88.6036 28.1988 88.5803 28.1704L88.5282 28.1075C88.5041 28.0787 88.4797 28.0502 88.4552 28.0214L88.4039 27.9623L88.3273 27.8755L88.2819 27.8253C88.1876 27.7216 88.0908 27.6195 87.9918 27.5199L87.9483 27.4761L87.8575 27.3874L87.8129 27.3448C87.7814 27.3145 87.7498 27.2845 87.7178 27.255L87.685 27.225C87.5733 27.1221 87.4585 27.0218 87.3416 26.9256L87.3096 26.8991C87.2736 26.8691 87.2373 26.8396 87.2007 26.8104L87.1644 26.7812C87.1249 26.7512 87.089 26.7217 87.0507 26.6921L87.0313 26.6775C86.9023 26.5787 86.77 26.4825 86.6366 26.3901L86.618 26.377C86.5758 26.3482 86.5336 26.3197 86.4909 26.2917L86.4629 26.2733C86.4195 26.2445 86.3757 26.2164 86.3318 26.1884L86.3243 26.1839C86.1791 26.0918 86.031 26.0036 85.8802 25.9193L85.8743 25.9155C85.8266 25.889 85.7788 25.8631 85.731 25.8373L85.7101 25.8261C85.4559 25.6901 85.1948 25.5654 84.9269 25.4519L84.9103 25.4447C84.8397 25.4148 84.7686 25.386 84.6968 25.3575H86.1096C86.3397 25.3575 86.5265 25.1064 86.5265 24.7962C86.5265 24.4859 86.3397 24.2348 86.1096 24.2348H85.6888C85.7148 24.1719 85.7437 24.1008 85.7748 24.0207C86.1728 23.7857 86.873 23.285 87.5678 22.3651L87.5733 22.358C87.626 22.2891 87.6777 22.2179 87.7285 22.1443L87.7387 22.1297C87.7893 22.0575 87.8398 21.983 87.8895 21.9051L87.9029 21.8846C87.9266 21.8471 87.9503 21.8097 87.974 21.7723C87.974 21.7723 87.974 21.7693 87.9768 21.7674C88.0012 21.73 88.0253 21.6888 88.0494 21.6488L88.0648 21.623C88.0853 21.5885 88.1062 21.5534 88.1264 21.5178C88.1303 21.5114 88.1343 21.5051 88.1378 21.4983C88.1611 21.4579 88.1844 21.4168 88.2073 21.3752L88.2231 21.3464C88.242 21.312 88.2606 21.2772 88.2791 21.242C88.2847 21.2323 88.2902 21.2222 88.2953 21.212C88.3174 21.1698 88.3395 21.1271 88.3616 21.0837L88.377 21.0534C88.3944 21.0182 88.4122 20.9823 88.4295 20.9463L88.4485 20.9089C88.4698 20.8647 88.4907 20.8198 88.5116 20.7746L88.5247 20.7457C88.542 20.7083 88.559 20.6709 88.576 20.6335L88.5961 20.5886C88.6159 20.5433 88.6356 20.4976 88.6545 20.4516C88.6581 20.4434 88.6616 20.4347 88.6648 20.4265C88.6826 20.3842 88.6999 20.3412 88.7173 20.2978L88.737 20.2484C88.7532 20.2072 88.7694 20.1657 88.7852 20.1241L88.7971 20.0927C88.8156 20.0433 88.8338 19.9928 88.8519 19.943L88.8709 19.8898C88.8851 19.8502 88.8989 19.8098 88.9127 19.7693C88.9178 19.7544 88.923 19.7394 88.9277 19.7244C88.9451 19.6728 88.9625 19.62 88.9794 19.5672C88.985 19.5489 88.9909 19.5298 88.9964 19.5126L89.0359 19.3895C89.041 19.3715 89.0465 19.3521 89.0517 19.336C89.0678 19.2817 89.084 19.2263 89.0994 19.1705C89.1046 19.153 89.1093 19.135 89.114 19.117C89.1259 19.074 89.1377 19.031 89.1492 18.9872C89.1543 18.9673 89.1594 18.9475 89.165 18.9277C89.1796 18.87 89.1942 18.812 89.2084 18.7533L89.2202 18.7042C89.2313 18.6575 89.2423 18.6103 89.253 18.5628L89.2672 18.4992C89.2806 18.4382 89.294 18.3771 89.3067 18.315C89.3094 18.3031 89.3118 18.2907 89.3142 18.2776C89.3252 18.2241 89.3359 18.1698 89.3461 18.1156C89.3505 18.0935 89.3544 18.0714 89.3588 18.0493C89.369 17.9936 89.3789 17.937 89.3888 17.8813C89.3908 17.8693 89.3931 17.8577 89.3951 17.8461C89.4061 17.7802 89.4169 17.7139 89.4275 17.647C89.431 17.6245 89.4346 17.6021 89.4377 17.5793C89.446 17.525 89.4539 17.4704 89.4618 17.415L89.4689 17.3641C89.4784 17.2952 89.4875 17.226 89.4962 17.1556C89.4989 17.1335 89.5013 17.1115 89.504 17.089C89.5109 17.0331 89.5172 16.977 89.523 16.9206C89.5254 16.9004 89.5277 16.8805 89.5297 16.8603C89.5373 16.788 89.5444 16.715 89.551 16.6414C89.551 16.6208 89.5546 16.6002 89.5562 16.5793C89.5613 16.5202 89.5664 16.4606 89.5708 16.4008C89.5708 16.3787 89.5743 16.3566 89.5759 16.3345C89.5814 16.2582 89.5865 16.1813 89.5913 16.104C89.5913 16.0864 89.5913 16.0666 89.594 16.0509C89.5976 15.9865 89.6012 15.9217 89.6039 15.8566C89.6039 15.833 89.6039 15.8095 89.6071 15.7859C89.6102 15.7054 89.6134 15.6246 89.6158 15.5426C89.6158 15.5314 89.6158 15.5198 89.6158 15.5082C89.6179 15.4353 89.6194 15.3617 89.6205 15.2874C89.6205 15.2631 89.6205 15.2387 89.6205 15.2144C89.6205 15.1346 89.6205 15.0542 89.6205 14.9734V14.9547C89.6205 14.8686 89.6205 14.7814 89.6205 14.6927V14.6179C89.6205 14.543 89.6173 14.4644 89.6154 14.3866V14.3443C89.6126 14.2545 89.6091 14.1635 89.6055 14.0722C89.6055 14.0486 89.6031 14.0247 89.6023 14.0011C89.5989 13.9243 89.595 13.8469 89.5905 13.7691C89.5905 13.75 89.5905 13.7317 89.5873 13.7111C89.5818 13.6175 89.5758 13.5232 89.5692 13.4282L89.5644 13.3619C89.5585 13.2826 89.5526 13.2029 89.5459 13.1224C89.5459 13.0992 89.5423 13.076 89.5404 13.0528C89.5321 12.9555 89.523 12.8571 89.5135 12.7583C89.5135 12.7395 89.5096 12.7208 89.508 12.7017C89.4997 12.6175 89.4906 12.5326 89.4815 12.4469C89.4788 12.4211 89.476 12.3956 89.4729 12.3698C89.4618 12.268 89.45 12.1658 89.4373 12.0622C89.4373 12.0494 89.4338 12.0367 89.4322 12.0247C89.4209 11.9319 89.4089 11.8386 89.3963 11.7448C89.3923 11.7171 89.3888 11.6894 89.3848 11.6617C89.3701 11.5554 89.355 11.4483 89.3394 11.3402C87.7604 0.684033 76.5709 2.41341 76.5709 2.41341L76.9293 4.70304L70.1621 11.4806L70.4578 14.0977L73.0213 15.5947C73.1356 15.3193 73.2823 15.057 73.4587 14.8129C75.1127 13.0041 78.3216 11.5843 79.2402 11.2897C79.4241 11.231 79.5287 11.2014 79.5287 11.2014C75.1348 16.5928 75.6345 22.7693 75.8303 24.2415C75.6266 24.279 75.4691 24.5121 75.4691 24.7966C75.4691 25.1064 75.6558 25.3579 75.886 25.3579H77.2988C74.9491 26.2904 73.084 28.0663 72.1106 30.2979C72.1094 30.301 72.1081 30.304 72.1066 30.3069C72.0348 30.4726 71.968 30.6406 71.9061 30.811C71.9062 30.8128 71.9062 30.8145 71.9061 30.8163C71.8895 30.8627 71.8734 30.9091 71.8576 30.9559C71.8516 30.9727 71.8457 30.9895 71.8402 31.0068C71.826 31.0487 71.8128 31.091 71.8007 31.1336C71.7936 31.1553 71.7869 31.1774 71.7802 31.1991C71.7676 31.2392 71.7553 31.2796 71.7435 31.32L71.7222 31.3948C71.7111 31.4323 71.7001 31.4723 71.6898 31.5112C71.6823 31.5389 71.6752 31.5662 71.6681 31.5939C71.6586 31.6314 71.6487 31.6688 71.6397 31.7062C71.6306 31.7436 71.6219 31.7811 71.6132 31.8207C71.6045 31.8604 71.5935 31.9068 71.584 31.9502H71.0207C70.9124 31.948 70.8047 31.9662 70.7039 32.004C70.6031 32.0417 70.5113 32.0981 70.4339 32.17C70.3564 32.2418 70.2949 32.3276 70.2528 32.4223C70.2108 32.5169 70.1892 32.6186 70.1892 32.7214C70.1892 32.8241 70.2108 32.9258 70.2528 33.0204C70.2949 33.1151 70.3564 33.2009 70.4339 33.2727C70.5113 33.3446 70.6031 33.401 70.7039 33.4387C70.8047 33.4765 70.9124 33.4947 71.0207 33.4925H90.9855C91.0939 33.4947 91.2016 33.4765 91.3023 33.4387C91.4031 33.401 91.4949 33.3446 91.5724 33.2727C91.6498 33.2009 91.7114 33.1151 91.7534 33.0204C91.7954 32.9258 91.817 32.8241 91.817 32.7214C91.817 32.6186 91.7954 32.5169 91.7534 32.4223C91.7114 32.3276 91.6498 32.2418 91.5724 32.17C91.4949 32.0981 91.4031 32.0417 91.3023 32.004C91.2016 31.9662 91.0939 31.948 90.9855 31.9502L90.9784 31.9435Z" fill="#595653"/>
<path d="M99.3345 15V3.34411H102.332V7.95652H103.164L106.728 3.34411H109.991L105.496 8.78908L110.158 15H106.661L103.164 10.0546H102.332V15H99.3345ZM111.823 15.2165C111.734 15.2165 111.607 15.2109 111.44 15.1998C111.285 15.1998 111.162 15.1887 111.074 15.1665V12.5356C111.107 12.5467 111.19 12.5523 111.323 12.5523C111.545 12.5523 111.734 12.5245 111.89 12.469C112.056 12.4024 112.195 12.2692 112.306 12.0694C112.417 11.8585 112.511 11.5532 112.589 11.1536C112.678 10.7539 112.739 10.2211 112.772 9.55504C112.805 8.87788 112.822 8.02867 112.822 7.00739V3.34411H121.647V15H118.633V5.79185H115.619V7.34042C115.619 8.72802 115.564 9.89361 115.453 10.8372C115.342 11.7697 115.175 12.5245 114.953 13.1018C114.743 13.679 114.482 14.123 114.171 14.4339C113.86 14.7336 113.505 14.9389 113.105 15.05C112.717 15.161 112.289 15.2165 111.823 15.2165ZM126.317 15.2165C126.195 15.2165 126.073 15.2109 125.951 15.1998C125.84 15.1998 125.74 15.1832 125.651 15.1499V12.6688C125.74 12.6799 125.829 12.691 125.918 12.7021C126.007 12.7132 126.112 12.7188 126.234 12.7188C126.556 12.7188 126.806 12.6966 126.983 12.6522C127.161 12.5967 127.3 12.5079 127.4 12.3858C127.5 12.2525 127.583 12.0749 127.649 11.8529L122.97 3.34411H126.018L129.115 9.25531L131.546 3.34411H134.477L130.58 12.1526C130.325 12.7299 130.069 13.2128 129.814 13.6013C129.57 13.9898 129.287 14.3062 128.965 14.5504C128.654 14.7835 128.282 14.95 127.849 15.05C127.427 15.161 126.917 15.2165 126.317 15.2165ZM135.808 15V3.34411H144.383V5.8085H138.805V7.54023H140.72C142.341 7.54023 143.534 7.87326 144.3 8.53931C145.077 9.19426 145.466 10.0768 145.466 11.1869C145.466 12.3858 145.077 13.3238 144.3 14.0009C143.534 14.667 142.341 15 140.72 15H135.808ZM138.805 12.5356H140.387C141.109 12.5356 141.619 12.4191 141.919 12.1859C142.219 11.9417 142.369 11.6087 142.369 11.1869C142.369 10.765 142.219 10.4376 141.919 10.2044C141.619 9.96022 141.109 9.83811 140.387 9.83811H138.805V12.5356ZM105.396 33V28.3543C105.107 28.543 104.724 28.7151 104.247 28.8705C103.78 29.0148 103.225 29.087 102.582 29.087C101.372 29.087 100.456 28.7872 99.8341 28.1878C99.2235 27.5772 98.9183 26.6004 98.9183 25.2572V21.3441H101.915V24.7576C101.915 25.4126 102.054 25.8844 102.332 26.173C102.609 26.4505 102.998 26.5893 103.497 26.5893C103.952 26.5893 104.335 26.5393 104.646 26.4394C104.957 26.3284 105.207 26.2118 105.396 26.0897V21.3441H108.409V33H105.396ZM110.733 33V21.3441H119.226V23.642H113.731V25.9232H118.726V28.0879H113.731V30.7021H119.226V33H110.733ZM124.213 33V23.8085H120.633V21.3441H130.79V23.8085H127.21V33H124.213ZM132.296 33V21.3441H135.293V25.2072H136.708C138.329 25.2072 139.522 25.5569 140.288 26.2562C141.065 26.9556 141.454 27.9047 141.454 29.1036C141.454 30.3025 141.065 31.2516 140.288 31.951C139.522 32.6503 138.329 33 136.708 33H132.296ZM135.293 30.5356H136.375C137.074 30.5356 137.58 30.4024 137.89 30.136C138.201 29.8696 138.357 29.5254 138.357 29.1036C138.357 28.6818 138.201 28.3376 137.89 28.0712C137.58 27.8048 137.074 27.6716 136.375 27.6716H135.293V30.5356ZM142.286 33V21.3441H145.284V33H142.286ZM147.613 33V21.3441H152.359C153.447 21.3441 154.341 21.5051 155.04 21.827C155.739 22.1378 156.255 22.593 156.588 23.1924C156.933 23.7807 157.105 24.4912 157.105 25.3238C157.105 26.1452 156.933 26.8557 156.588 27.4551C156.255 28.0546 155.739 28.5153 155.04 28.8372C154.341 29.148 153.447 29.3034 152.359 29.3034H150.611V33H147.613ZM150.611 26.839H152.026C152.792 26.839 153.33 26.7114 153.641 26.4561C153.952 26.2007 154.107 25.8233 154.107 25.3238C154.107 24.8242 153.952 24.4468 153.641 24.1915C153.33 23.9362 152.792 23.8085 152.026 23.8085H150.611V26.839ZM158.768 33V21.3441H167.261V23.642H161.766V25.9232H166.761V28.0879H161.766V30.7021H167.261V33H158.768ZM168.422 33L172.219 26.9223L168.589 21.3441H171.902L174.184 24.8742L176.498 21.3441H179.745L176.132 26.889L179.912 33H176.565L174.134 28.9204L171.703 33H168.422ZM185.652 33V21.3441H188.649V25.9565H189.482L193.045 21.3441H196.309L191.813 26.7891L196.475 33H192.978L189.482 28.0546H188.649V33H185.652ZM202.979 33.2165C202.224 33.2165 201.502 33.1055 200.814 32.8834C200.126 32.6614 199.521 32.3117 198.999 31.8344C198.478 31.3571 198.067 30.741 197.767 29.9861C197.467 29.2202 197.317 28.3099 197.317 27.2553V26.9223C197.317 25.901 197.467 25.024 197.767 24.2914C198.067 23.5587 198.478 22.9593 198.999 22.4931C199.521 22.0268 200.126 21.6827 200.814 21.4607C201.502 21.2387 202.224 21.1276 202.979 21.1276C203.756 21.1276 204.483 21.2387 205.16 21.4607C205.837 21.6827 206.437 22.0268 206.959 22.4931C207.48 22.9593 207.891 23.5587 208.191 24.2914C208.49 25.024 208.64 25.901 208.64 26.9223V27.2553C208.64 28.3099 208.49 29.2202 208.191 29.9861C207.891 30.741 207.48 31.3571 206.959 31.8344C206.437 32.3117 205.837 32.6614 205.16 32.8834C204.483 33.1055 203.756 33.2165 202.979 33.2165ZM202.962 30.7188C203.417 30.7188 203.839 30.6189 204.228 30.4191C204.616 30.2081 204.927 29.8585 205.16 29.37C205.404 28.8705 205.527 28.1656 205.527 27.2553V26.9223C205.527 26.0564 205.404 25.3848 205.16 24.9075C204.927 24.4301 204.616 24.0971 204.228 23.9084C203.839 23.7197 203.417 23.6253 202.962 23.6253C202.529 23.6253 202.119 23.7197 201.73 23.9084C201.342 24.0971 201.025 24.4301 200.781 24.9075C200.537 25.3848 200.415 26.0564 200.415 26.9223V27.2553C200.415 28.1656 200.537 28.8705 200.781 29.37C201.025 29.8585 201.342 30.2081 201.73 30.4191C202.119 30.6189 202.529 30.7188 202.962 30.7188ZM210.547 33V21.3441H213.545V25.7734H217.874V21.3441H220.871V33H217.874V28.2377H213.545V33H210.547ZM223.198 33V21.3441H231.691V23.642H226.196V25.9232H231.191V28.0879H226.196V30.7021H231.691V33H223.198ZM233.606 33V21.3441H236.603V28.3376L241.182 21.3441H243.929V33H240.932V26.0065L236.353 33H233.606ZM238.767 20.6947C237.99 20.6947 237.352 20.5893 236.853 20.3783C236.364 20.1563 236.003 19.8344 235.77 19.4126C235.548 18.9907 235.437 18.4634 235.437 17.8307H237.868C237.868 18.2969 237.935 18.6133 238.068 18.7798C238.212 18.9352 238.445 19.0129 238.767 19.0129C239.089 19.0129 239.317 18.9352 239.45 18.7798C239.594 18.6133 239.667 18.2969 239.667 17.8307H242.098C242.098 18.4634 241.981 18.9907 241.748 19.4126C241.526 19.8344 241.171 20.1563 240.682 20.3783C240.194 20.5893 239.556 20.6947 238.767 20.6947Z" fill="#595653"/>
</g>
<defs>
<clipPath id="clip0_899_361">
<rect width="245" height="36" fill="white"/>
</clipPath>
</defs>
</svg>
