<svg width="32" height="32" viewBox="0 0 32 32" fill="none" xmlns="http://www.w3.org/2000/svg">
<path d="M25.8163 30.4102H25.2534C25.2534 30.4041 25.2506 30.3979 25.2495 30.3922L25.2341 30.3215C25.2242 30.275 25.2135 30.229 25.2025 30.1833C25.1978 30.1618 25.1926 30.1402 25.1875 30.1187C25.1729 30.0584 25.1575 29.9981 25.1417 29.9379L25.137 29.9206C25.1196 29.8553 25.1014 29.7903 25.0825 29.7255L25.0635 29.6629C25.0505 29.6183 25.0367 29.5742 25.0241 29.53C25.0166 29.5058 25.0087 29.482 25.0012 29.4582C24.9874 29.4155 24.9731 29.3729 24.9585 29.3307C24.951 29.3084 24.9431 29.2857 24.9356 29.2639C24.9172 29.2109 24.8983 29.1582 24.8788 29.106C24.8745 29.0949 24.8709 29.0841 24.8666 29.073C24.8437 29.0115 24.8196 28.9505 24.7951 28.8894C24.7864 28.8671 24.7773 28.8452 24.7683 28.8233C24.7517 28.7849 24.7351 28.7427 24.7181 28.7028L24.6862 28.6286C24.6696 28.5902 24.6526 28.5518 24.6352 28.5134C24.6246 28.4896 24.6135 28.4654 24.6025 28.4416C24.5823 28.3974 24.563 28.3537 24.5405 28.3103C24.5322 28.2937 24.5247 28.2768 24.5164 28.2599C24.4884 28.2027 24.4596 28.1447 24.4304 28.0894L24.3909 28.0176L24.3352 27.9135L24.2918 27.8367C24.2736 27.8045 24.2555 27.7722 24.2369 27.7399C24.2223 27.7138 24.2073 27.6877 24.1923 27.6631C24.1718 27.6282 24.1529 27.594 24.1303 27.5594L24.0735 27.4657C24.0467 27.4227 24.0198 27.3793 23.9922 27.3367C23.9748 27.3098 23.9575 27.2833 23.9397 27.2568C23.9219 27.2303 23.9026 27.2 23.8836 27.1719C23.8647 27.1439 23.8442 27.1159 23.8268 27.0882C23.8094 27.0606 23.7905 27.0356 23.7719 27.0114C23.7534 26.9872 23.7324 26.955 23.7123 26.9269L23.6567 26.8501C23.6172 26.799 23.5809 26.748 23.5422 26.6965L23.4881 26.6262C23.4652 26.5966 23.4415 26.5675 23.4182 26.5383L23.3661 26.4737C23.342 26.4442 23.3176 26.415 23.2931 26.3854L23.2418 26.3247L23.1652 26.2356L23.1198 26.1842C23.0254 26.0778 22.9287 25.9729 22.8297 25.8708L22.7862 25.8259L22.6954 25.7348L22.6508 25.6911C22.6192 25.6599 22.5877 25.6292 22.5557 25.5989L22.5229 25.5682C22.4112 25.4625 22.2963 25.3596 22.1795 25.2609L22.1475 25.2337C22.1115 25.2029 22.0752 25.1726 22.0386 25.1426L22.0023 25.1127C21.9628 25.082 21.9269 25.0516 21.8886 25.0213L21.8692 25.0063C21.7401 24.9049 21.6079 24.8062 21.4745 24.7113L21.4559 24.6979C21.4137 24.6683 21.3714 24.6391 21.3288 24.6103L21.3008 24.5915C21.2574 24.562 21.2135 24.5331 21.1697 24.5043L21.1622 24.4997C21.017 24.4053 20.8689 24.3148 20.7181 24.2282L20.7122 24.2244C20.6645 24.1971 20.6167 24.1706 20.5689 24.1441L20.548 24.1326C20.2938 23.9931 20.0327 23.865 19.7648 23.7485L19.7482 23.7412C19.6776 23.7105 19.6065 23.6809 19.5347 23.6518H20.9475C21.1776 23.6518 21.3643 23.3941 21.3643 23.0757C21.3643 22.7573 21.1776 22.4996 20.9475 22.4996H20.5267C20.5527 22.4351 20.5816 22.3621 20.6127 22.2799C21.0106 22.0388 21.7109 21.5249 22.4057 20.5809L22.4112 20.5736C22.4639 20.503 22.5156 20.4299 22.5664 20.3543L22.5766 20.3394C22.6271 20.2652 22.6777 20.1888 22.7274 20.1089L22.7408 20.0878C22.7645 20.0494 22.7882 20.011 22.8119 19.9726C22.8119 19.9726 22.8119 19.9695 22.8147 19.9676C22.8391 19.9292 22.8632 19.8869 22.8873 19.8459L22.9027 19.8193C22.9232 19.784 22.9441 19.7479 22.9643 19.7114C22.9682 19.7049 22.9722 19.6984 22.9757 19.6915C22.999 19.65 23.0223 19.6077 23.0452 19.5651L23.061 19.5355C23.0799 19.5002 23.0985 19.4645 23.117 19.4284C23.1226 19.4184 23.1281 19.408 23.1332 19.3977C23.1553 19.3543 23.1774 19.3105 23.1995 19.2659L23.2149 19.2348C23.2323 19.1987 23.2501 19.1619 23.2674 19.125L23.2864 19.0866C23.3077 19.0413 23.3286 18.9952 23.3495 18.9487L23.3626 18.9191C23.3799 18.8807 23.3969 18.8423 23.4139 18.8039L23.434 18.7578C23.4537 18.7114 23.4735 18.6645 23.4924 18.6173C23.496 18.6088 23.4995 18.6 23.5027 18.5915C23.5205 18.5482 23.5378 18.504 23.5552 18.4594L23.5749 18.4087C23.5911 18.3665 23.6073 18.3239 23.6231 18.2812L23.6349 18.249C23.6535 18.1983 23.6716 18.1464 23.6898 18.0954L23.7088 18.0408C23.723 18.0001 23.7368 17.9586 23.7506 17.9172C23.7557 17.9018 23.7609 17.8864 23.7656 17.8711C23.783 17.8181 23.8003 17.7639 23.8173 17.7098C23.8228 17.691 23.8288 17.6714 23.8343 17.6537L23.8738 17.5274C23.8789 17.5089 23.8844 17.4889 23.8896 17.4724C23.9057 17.4167 23.9219 17.3599 23.9373 17.3027C23.9424 17.2846 23.9472 17.2662 23.9519 17.2478C23.9638 17.2036 23.9756 17.1594 23.9871 17.1145C23.9922 17.0941 23.9973 17.0738 24.0028 17.0534C24.0175 16.9943 24.0321 16.9348 24.0463 16.8745L24.0581 16.8242C24.0692 16.7762 24.0802 16.7278 24.0909 16.679L24.1051 16.6137C24.1185 16.5511 24.1319 16.4885 24.1446 16.4247C24.1473 16.4125 24.1497 16.3998 24.1521 16.3863C24.1631 16.3314 24.1738 16.2757 24.184 16.2201C24.1884 16.1974 24.1923 16.1747 24.1967 16.1521C24.2069 16.0949 24.2168 16.0369 24.2267 15.9796C24.2286 15.9673 24.231 15.9554 24.233 15.9435C24.244 15.8759 24.2548 15.8078 24.2654 15.7392C24.2689 15.7162 24.2725 15.6931 24.2756 15.6697C24.2839 15.614 24.2918 15.558 24.2997 15.5011L24.3068 15.4489C24.3163 15.3782 24.3254 15.3072 24.334 15.235C24.3368 15.2123 24.3392 15.1897 24.3419 15.1666C24.3488 15.1093 24.3551 15.0517 24.3609 14.9938C24.3633 14.973 24.3656 14.9527 24.3676 14.932C24.3752 14.8577 24.3823 14.7828 24.3889 14.7073C24.3889 14.6862 24.3925 14.665 24.394 14.6435C24.3992 14.5829 24.4043 14.5218 24.4087 14.4603C24.4087 14.4377 24.4122 14.415 24.4138 14.3924C24.4193 14.314 24.4244 14.2352 24.4292 14.1558C24.4292 14.1377 24.4292 14.1174 24.4319 14.1013C24.4355 14.0352 24.439 13.9688 24.4418 13.9019C24.4418 13.8777 24.4418 13.8536 24.445 13.8294C24.4481 13.7468 24.4513 13.6638 24.4537 13.5797C24.4537 13.5682 24.4537 13.5563 24.4537 13.5444C24.4558 13.4696 24.4573 13.3941 24.4584 13.3178C24.4584 13.2928 24.4584 13.2679 24.4584 13.2429C24.4584 13.161 24.4584 13.0785 24.4584 12.9956V12.9764C24.4584 12.8881 24.4584 12.7986 24.4584 12.7076V12.6307C24.4584 12.5539 24.4552 12.4733 24.4533 12.3934V12.35C24.4505 12.2578 24.4469 12.1645 24.4434 12.0708C24.4434 12.0466 24.441 12.022 24.4402 11.9978C24.4368 11.919 24.4329 11.8396 24.4284 11.7597C24.4284 11.7401 24.4284 11.7213 24.4252 11.7002C24.4197 11.6042 24.4136 11.5074 24.4071 11.4099L24.4023 11.3419C24.3964 11.2605 24.3905 11.1787 24.3838 11.0961C24.3838 11.0723 24.3802 11.0485 24.3783 11.0247C24.37 10.9248 24.3609 10.8238 24.3514 10.7224C24.3514 10.7032 24.3475 10.684 24.3459 10.6644C24.3376 10.578 24.3285 10.4908 24.3194 10.4029C24.3167 10.3764 24.3139 10.3503 24.3108 10.3238C24.2997 10.2193 24.2879 10.1145 24.2752 10.0081C24.2752 9.99502 24.2717 9.98197 24.2701 9.96968C24.2588 9.87443 24.2468 9.77868 24.2342 9.68241C24.2302 9.65399 24.2267 9.62557 24.2227 9.59715C24.208 9.48808 24.1929 9.37811 24.1773 9.26725C22.5983 -1.66812 11.4088 0.106562 11.4088 0.106562L11.7672 2.45617L5 9.41127L5.29567 12.0969L7.85917 13.6331C7.97345 13.3505 8.12017 13.0814 8.29655 12.8308C9.95055 10.9747 13.1595 9.51765 14.0781 9.21541C14.262 9.15511 14.3666 9.12477 14.3666 9.12477C9.97266 14.6574 10.4724 20.9957 10.6682 22.5065C10.4645 22.5449 10.307 22.7842 10.307 23.0761C10.307 23.3941 10.4937 23.6521 10.7239 23.6521H12.1367C9.78699 24.609 7.92185 26.4315 6.94848 28.7216C6.94734 28.7247 6.94602 28.7278 6.94454 28.7308C6.87269 28.9008 6.80585 29.0732 6.74401 29.2481C6.74411 29.2499 6.74411 29.2517 6.74401 29.2535C6.72743 29.3011 6.71124 29.3487 6.69545 29.3967C6.68953 29.414 6.68361 29.4313 6.67808 29.449C6.66387 29.492 6.65071 29.5354 6.63861 29.5792C6.6315 29.6014 6.62479 29.6241 6.61808 29.6464C6.60545 29.6875 6.59321 29.7289 6.58137 29.7704L6.56005 29.8472C6.549 29.8856 6.53795 29.9267 6.52768 29.9667C6.52018 29.9951 6.51308 30.0231 6.50597 30.0515C6.4965 30.0899 6.48663 30.1283 6.47755 30.1667C6.46847 30.2052 6.45978 30.2436 6.4511 30.2843C6.44242 30.325 6.43136 30.3726 6.42189 30.4171H5.85858C5.75026 30.4148 5.64255 30.4336 5.54178 30.4723C5.44101 30.511 5.3492 30.5689 5.27175 30.6427C5.19429 30.7164 5.13275 30.8044 5.09074 30.9016C5.04872 30.9987 5.02708 31.1031 5.02708 31.2085C5.02708 31.3139 5.04872 31.4182 5.09074 31.5154C5.13275 31.6126 5.19429 31.7006 5.27175 31.7743C5.3492 31.848 5.44101 31.9059 5.54178 31.9447C5.64255 31.9834 5.75026 32.0021 5.85858 31.9998H25.8234C25.9318 32.0021 26.0395 31.9834 26.1402 31.9447C26.241 31.9059 26.3328 31.848 26.4103 31.7743C26.4877 31.7006 26.5493 31.6126 26.5913 31.5154C26.6333 31.4182 26.6549 31.3139 26.6549 31.2085C26.6549 31.1031 26.6333 30.9987 26.5913 30.9016C26.5493 30.8044 26.4877 30.7164 26.4103 30.6427C26.3328 30.5689 26.241 30.511 26.1402 30.4723C26.0395 30.4336 25.9318 30.4148 25.8234 30.4171L25.8163 30.4102Z" fill="#595653"/>
</svg>
